<svg xmlns="http://www.w3.org/2000/svg" width="1984" height="384" viewBox="-99.2 -19.2 198.4 38.4" shape-rendering="geometricPrecision"><defs><clipPath id="hullclip"><path d="M-93.25,-6.647 L-93.243,-6.831 L-93.223,-7.016 L-93.189,-7.201 L-93.141,-7.385 L-93.08,-7.569 L-93.005,-7.753 L-92.917,-7.937 L-92.815,-8.12 L-92.699,-8.302 L-92.57,-8.484 L-92.428,-8.666 L-92.271,-8.846 L-92.102,-9.026 L-91.919,-9.205 L-91.723,-9.384 L-91.513,-9.561 L-91.29,-9.737 L-91.053,-9.912 L-90.803,-10.086 L-90.54,-10.259 L-90.264,-10.431 L-89.975,-10.601 L-89.672,-10.77 L-89.356,-10.937 L-89.028,-11.103 L-88.686,-11.267 L-88.331,-11.43 L-87.964,-11.59 L-87.583,-11.749 L-87.19,-11.907 L-86.784,-12.062 L-86.366,-12.215 L-85.935,-12.366 L-85.491,-12.515 L-85.035,-12.662 L-84.566,-12.807 L-84.085,-12.949 L-83.592,-13.089 L-83.086,-13.226 L-82.569,-13.361 L-82.039,-13.493 L-81.498,-13.622 L-80.944,-13.749 L-80.379,-13.873 L-79.802,-13.993 L-79.213,-14.111 L-78.613,-14.226 L-78.001,-14.338 L-77.378,-14.446 L-76.743,-14.551 L-76.098,-14.652 L-75.441,-14.751 L-74.773,-14.845 L-74.094,-14.936 L-73.405,-15.023 L-72.705,-15.106 L-71.994,-15.185 L-71.272,-15.26 L-70.541,-15.331 L-69.799,-15.398 L-69.046,-15.461 L-68.284,-15.518 L-67.512,-15.572 L-66.73,-15.62 L-65.938,-15.664 L-65.136,-15.703 L-64.325,-15.737 L-63.505,-15.765 L-62.675,-15.788 L-61.836,-15.806 L-60.988,-15.818 L-60.132,-15.824 L-59.266,-15.825 L-58.392,-15.825 L-57.509,-15.825 L-56.618,-15.825 L-55.719,-15.825 L-54.811,-15.825 L-53.895,-15.825 L-52.972,-15.825 L-52.041,-15.825 L-51.102,-15.825 L-50.156,-15.825 L-49.202,-15.825 L-48.242,-15.825 L-47.274,-15.825 L-46.299,-15.825 L-45.318,-15.825 L-44.33,-15.825 L-43.335,-15.825 L-42.335,-15.825 L-41.328,-15.825 L-40.315,-15.825 L-39.296,-15.825 L-38.271,-15.825 L-37.241,-15.825 L-36.205,-15.825 L-35.164,-15.825 L-34.118,-15.825 L-33.067,-15.825 L-32.011,-15.825 L-30.95,-15.825 L-29.885,-15.825 L-28.816,-15.825 L-27.742,-15.825 L-26.664,-15.825 L-25.583,-15.825 L-24.497,-15.825 L-23.409,-15.825 L-22.316,-15.825 L-21.221,-15.825 L-20.122,-15.825 L-19.02,-15.825 L-17.916,-15.825 L-16.809,-15.825 L-15.699,-15.825 L-14.588,-15.825 L-13.474,-15.825 L-12.358,-15.825 L-11.24,-15.825 L-10.121,-15.825 L-9,-15.825 L-7.878,-15.825 L-6.755,-15.825 L-5.63,-15.825 L-4.505,-15.825 L-3.379,-15.825 L-2.253,-15.825 L-1.127,-15.825 L-0,-15.825 L1.127,-15.825 L2.253,-15.825 L3.379,-15.825 L4.505,-15.825 L5.63,-15.825 L6.755,-15.825 L7.878,-15.825 L9,-15.825 L10.121,-15.825 L11.24,-15.825 L12.358,-15.825 L13.474,-15.825 L14.588,-15.825 L15.699,-15.825 L16.809,-15.825 L17.916,-15.825 L19.02,-15.825 L20.122,-15.825 L21.221,-15.825 L22.316,-15.825 L23.409,-15.825 L24.497,-15.825 L25.583,-15.825 L26.664,-15.825 L27.742,-15.825 L28.816,-15.825 L29.885,-15.825 L30.95,-15.825 L32.011,-15.825 L33.067,-15.825 L34.118,-15.825 L35.164,-15.825 L36.205,-15.825 L37.241,-15.825 L38.271,-15.825 L39.296,-15.825 L40.315,-15.807 L41.328,-15.757 L42.335,-15.685 L43.335,-15.597 L44.33,-15.494 L45.318,-15.378 L46.299,-15.251 L47.274,-15.112 L48.242,-14.964 L49.202,-14.808 L50.156,-14.642 L51.102,-14.469 L52.041,-14.289 L52.972,-14.102 L53.895,-13.908 L54.811,-13.709 L55.719,-13.504 L56.618,-13.295 L57.509,-13.08 L58.392,-12.861 L59.266,-12.638 L60.132,-12.412 L60.988,-12.181 L61.836,-11.948 L62.675,-11.712 L63.505,-11.474 L64.325,-11.233 L65.136,-10.99 L65.938,-10.746 L66.73,-10.5 L67.512,-10.253 L68.284,-10.005 L69.046,-9.756 L69.799,-9.506 L70.541,-9.256 L71.272,-9.007 L71.994,-8.757 L72.705,-8.508 L73.405,-8.259 L74.094,-8.011 L74.773,-7.764 L75.441,-7.518 L76.098,-7.274 L76.743,-7.031 L77.378,-6.79 L78.001,-6.55 L78.613,-6.313 L79.213,-6.078 L79.802,-5.846 L80.379,-5.616 L80.944,-5.389 L81.498,-5.165 L82.039,-4.944 L82.569,-4.726 L83.086,-4.512 L83.592,-4.301 L84.085,-4.094 L84.566,-3.891 L85.035,-3.691 L85.491,-3.496 L85.935,-3.305 L86.366,-3.118 L86.784,-2.936 L87.19,-2.758 L87.583,-2.585 L87.964,-2.417 L88.331,-2.254 L88.686,-2.096 L89.028,-1.943 L89.356,-1.795 L89.672,-1.653 L89.975,-1.516 L90.264,-1.384 L90.54,-1.258 L90.803,-1.137 L91.053,-1.023 L91.29,-0.914 L91.513,-0.811 L91.723,-0.714 L91.919,-0.623 L92.102,-0.538 L92.271,-0.459 L92.428,-0.386 L92.57,-0.319 L92.699,-0.259 L92.815,-0.205 L92.917,-0.157 L93.005,-0.115 L93.08,-0.08 L93.141,-0.051 L93.189,-0.029 L93.223,-0.013 L93.223,0.013 L93.189,0.029 L93.141,0.051 L93.08,0.08 L93.005,0.115 L92.917,0.157 L92.815,0.205 L92.699,0.259 L92.57,0.319 L92.428,0.386 L92.271,0.459 L92.102,0.538 L91.919,0.623 L91.723,0.714 L91.513,0.811 L91.29,0.914 L91.053,1.023 L90.803,1.137 L90.54,1.258 L90.264,1.384 L89.975,1.516 L89.672,1.653 L89.356,1.795 L89.028,1.943 L88.686,2.096 L88.331,2.254 L87.964,2.417 L87.583,2.585 L87.19,2.758 L86.784,2.936 L86.366,3.118 L85.935,3.305 L85.491,3.496 L85.035,3.691 L84.566,3.891 L84.085,4.094 L83.592,4.301 L83.086,4.512 L82.569,4.726 L82.039,4.944 L81.498,5.165 L80.944,5.389 L80.379,5.616 L79.802,5.846 L79.213,6.078 L78.613,6.313 L78.001,6.55 L77.378,6.79 L76.743,7.031 L76.098,7.274 L75.441,7.518 L74.773,7.764 L74.094,8.011 L73.405,8.259 L72.705,8.508 L71.994,8.757 L71.272,9.007 L70.541,9.256 L69.799,9.506 L69.046,9.756 L68.284,10.005 L67.512,10.253 L66.73,10.5 L65.938,10.746 L65.136,10.99 L64.325,11.233 L63.505,11.474 L62.675,11.712 L61.836,11.948 L60.988,12.181 L60.132,12.412 L59.266,12.638 L58.392,12.861 L57.509,13.08 L56.618,13.295 L55.719,13.504 L54.811,13.709 L53.895,13.908 L52.972,14.102 L52.041,14.289 L51.102,14.469 L50.156,14.642 L49.202,14.808 L48.242,14.964 L47.274,15.112 L46.299,15.251 L45.318,15.378 L44.33,15.494 L43.335,15.597 L42.335,15.685 L41.328,15.757 L40.315,15.807 L39.296,15.825 L38.271,15.825 L37.241,15.825 L36.205,15.825 L35.164,15.825 L34.118,15.825 L33.067,15.825 L32.011,15.825 L30.95,15.825 L29.885,15.825 L28.816,15.825 L27.742,15.825 L26.664,15.825 L25.583,15.825 L24.497,15.825 L23.409,15.825 L22.316,15.825 L21.221,15.825 L20.122,15.825 L19.02,15.825 L17.916,15.825 L16.809,15.825 L15.699,15.825 L14.588,15.825 L13.474,15.825 L12.358,15.825 L11.24,15.825 L10.121,15.825 L9,15.825 L7.878,15.825 L6.755,15.825 L5.63,15.825 L4.505,15.825 L3.379,15.825 L2.253,15.825 L1.127,15.825 L-0,15.825 L-1.127,15.825 L-2.253,15.825 L-3.379,15.825 L-4.505,15.825 L-5.63,15.825 L-6.755,15.825 L-7.878,15.825 L-9,15.825 L-10.121,15.825 L-11.24,15.825 L-12.358,15.825 L-13.474,15.825 L-14.588,15.825 L-15.699,15.825 L-16.809,15.825 L-17.916,15.825 L-19.02,15.825 L-20.122,15.825 L-21.221,15.825 L-22.316,15.825 L-23.409,15.825 L-24.497,15.825 L-25.583,15.825 L-26.664,15.825 L-27.742,15.825 L-28.816,15.825 L-29.885,15.825 L-30.95,15.825 L-32.011,15.825 L-33.067,15.825 L-34.118,15.825 L-35.164,15.825 L-36.205,15.825 L-37.241,15.825 L-38.271,15.825 L-39.296,15.825 L-40.315,15.825 L-41.328,15.825 L-42.335,15.825 L-43.335,15.825 L-44.33,15.825 L-45.318,15.825 L-46.299,15.825 L-47.274,15.825 L-48.242,15.825 L-49.202,15.825 L-50.156,15.825 L-51.102,15.825 L-52.041,15.825 L-52.972,15.825 L-53.895,15.825 L-54.811,15.825 L-55.719,15.825 L-56.618,15.825 L-57.509,15.825 L-58.392,15.825 L-59.266,15.825 L-60.132,15.824 L-60.988,15.818 L-61.836,15.806 L-62.675,15.788 L-63.505,15.765 L-64.325,15.737 L-65.136,15.703 L-65.938,15.664 L-66.73,15.62 L-67.512,15.572 L-68.284,15.518 L-69.046,15.461 L-69.799,15.398 L-70.541,15.331 L-71.272,15.26 L-71.994,15.185 L-72.705,15.106 L-73.405,15.023 L-74.094,14.936 L-74.773,14.845 L-75.441,14.751 L-76.098,14.652 L-76.743,14.551 L-77.378,14.446 L-78.001,14.338 L-78.613,14.226 L-79.213,14.111 L-79.802,13.993 L-80.379,13.873 L-80.944,13.749 L-81.498,13.622 L-82.039,13.493 L-82.569,13.361 L-83.086,13.226 L-83.592,13.089 L-84.085,12.949 L-84.566,12.807 L-85.035,12.662 L-85.491,12.515 L-85.935,12.366 L-86.366,12.215 L-86.784,12.062 L-87.19,11.907 L-87.583,11.749 L-87.964,11.59 L-88.331,11.43 L-88.686,11.267 L-89.028,11.103 L-89.356,10.937 L-89.672,10.77 L-89.975,10.601 L-90.264,10.431 L-90.54,10.259 L-90.803,10.086 L-91.053,9.912 L-91.29,9.737 L-91.513,9.561 L-91.723,9.384 L-91.919,9.205 L-92.102,9.026 L-92.271,8.846 L-92.428,8.666 L-92.57,8.484 L-92.699,8.302 L-92.815,8.12 L-92.917,7.937 L-93.005,7.753 L-93.08,7.569 L-93.141,7.385 L-93.189,7.201 L-93.223,7.016 L-93.243,6.831 L-93.25,6.647 Z"/></clipPath><clipPath id="deckclip"><path d="M-93.25,-6.097 L-93.243,-6.281 L-93.223,-6.466 L-93.189,-6.651 L-93.141,-6.835 L-93.08,-7.019 L-93.005,-7.203 L-92.917,-7.387 L-92.815,-7.57 L-92.699,-7.752 L-92.57,-7.934 L-92.428,-8.116 L-92.271,-8.296 L-92.102,-8.476 L-91.919,-8.655 L-91.723,-8.834 L-91.513,-9.011 L-91.29,-9.187 L-91.053,-9.362 L-90.803,-9.536 L-90.54,-9.709 L-90.264,-9.881 L-89.975,-10.051 L-89.672,-10.22 L-89.356,-10.387 L-89.028,-10.553 L-88.686,-10.717 L-88.331,-10.88 L-87.964,-11.04 L-87.583,-11.199 L-87.19,-11.357 L-86.784,-11.512 L-86.366,-11.665 L-85.935,-11.816 L-85.491,-11.965 L-85.035,-12.112 L-84.566,-12.257 L-84.085,-12.399 L-83.592,-12.539 L-83.086,-12.676 L-82.569,-12.811 L-82.039,-12.943 L-81.498,-13.072 L-80.944,-13.199 L-80.379,-13.323 L-79.802,-13.443 L-79.213,-13.561 L-78.613,-13.676 L-78.001,-13.788 L-77.378,-13.896 L-76.743,-14.001 L-76.098,-14.102 L-75.441,-14.201 L-74.773,-14.295 L-74.094,-14.386 L-73.405,-14.473 L-72.705,-14.556 L-71.994,-14.635 L-71.272,-14.71 L-70.541,-14.781 L-69.799,-14.848 L-69.046,-14.911 L-68.284,-14.968 L-67.512,-15.022 L-66.73,-15.07 L-65.938,-15.114 L-65.136,-15.153 L-64.325,-15.187 L-63.505,-15.215 L-62.675,-15.238 L-61.836,-15.256 L-60.988,-15.268 L-60.132,-15.274 L-59.266,-15.275 L-58.392,-15.275 L-57.509,-15.275 L-56.618,-15.275 L-55.719,-15.275 L-54.811,-15.275 L-53.895,-15.275 L-52.972,-15.275 L-52.041,-15.275 L-51.102,-15.275 L-50.156,-15.275 L-49.202,-15.275 L-48.242,-15.275 L-47.274,-15.275 L-46.299,-15.275 L-45.318,-15.275 L-44.33,-15.275 L-43.335,-15.275 L-42.335,-15.275 L-41.328,-15.275 L-40.315,-15.275 L-39.296,-15.275 L-38.271,-15.275 L-37.241,-15.275 L-36.205,-15.275 L-35.164,-15.275 L-34.118,-15.275 L-33.067,-15.275 L-32.011,-15.275 L-30.95,-15.275 L-29.885,-15.275 L-28.816,-15.275 L-27.742,-15.275 L-26.664,-15.275 L-25.583,-15.275 L-24.497,-15.275 L-23.409,-15.275 L-22.316,-15.275 L-21.221,-15.275 L-20.122,-15.275 L-19.02,-15.275 L-17.916,-15.275 L-16.809,-15.275 L-15.699,-15.275 L-14.588,-15.275 L-13.474,-15.275 L-12.358,-15.275 L-11.24,-15.275 L-10.121,-15.275 L-9,-15.275 L-7.878,-15.275 L-6.755,-15.275 L-5.63,-15.275 L-4.505,-15.275 L-3.379,-15.275 L-2.253,-15.275 L-1.127,-15.275 L-0,-15.275 L1.127,-15.275 L2.253,-15.275 L3.379,-15.275 L4.505,-15.275 L5.63,-15.275 L6.755,-15.275 L7.878,-15.275 L9,-15.275 L10.121,-15.275 L11.24,-15.275 L12.358,-15.275 L13.474,-15.275 L14.588,-15.275 L15.699,-15.275 L16.809,-15.275 L17.916,-15.275 L19.02,-15.275 L20.122,-15.275 L21.221,-15.275 L22.316,-15.275 L23.409,-15.275 L24.497,-15.275 L25.583,-15.275 L26.664,-15.275 L27.742,-15.275 L28.816,-15.275 L29.885,-15.275 L30.95,-15.275 L32.011,-15.275 L33.067,-15.275 L34.118,-15.275 L35.164,-15.275 L36.205,-15.275 L37.241,-15.275 L38.271,-15.275 L39.296,-15.275 L40.315,-15.257 L41.328,-15.207 L42.335,-15.135 L43.335,-15.047 L44.33,-14.944 L45.318,-14.828 L46.299,-14.701 L47.274,-14.562 L48.242,-14.414 L49.202,-14.258 L50.156,-14.092 L51.102,-13.919 L52.041,-13.739 L52.972,-13.552 L53.895,-13.358 L54.811,-13.159 L55.719,-12.954 L56.618,-12.745 L57.509,-12.53 L58.392,-12.311 L59.266,-12.088 L60.132,-11.862 L60.988,-11.631 L61.836,-11.398 L62.675,-11.162 L63.505,-10.924 L64.325,-10.683 L65.136,-10.44 L65.938,-10.196 L66.73,-9.95 L67.512,-9.703 L68.284,-9.455 L69.046,-9.206 L69.799,-8.956 L70.541,-8.706 L71.272,-8.457 L71.994,-8.207 L72.705,-7.958 L73.405,-7.709 L74.094,-7.461 L74.773,-7.214 L75.441,-6.968 L76.098,-6.724 L76.743,-6.481 L77.378,-6.24 L78.001,-6 L78.613,-5.763 L79.213,-5.528 L79.802,-5.296 L80.379,-5.066 L80.944,-4.839 L81.498,-4.615 L82.039,-4.394 L82.569,-4.176 L83.086,-3.962 L83.592,-3.751 L84.085,-3.544 L84.566,-3.341 L85.035,-3.141 L85.491,-2.946 L85.935,-2.755 L86.366,-2.568 L86.784,-2.386 L87.19,-2.208 L87.583,-2.035 L87.964,-1.867 L88.331,-1.704 L88.686,-1.546 L89.028,-1.393 L89.356,-1.245 L89.672,-1.103 L89.975,-0.966 L90.264,-0.834 L90.54,-0.708 L90.803,-0.587 L91.053,-0.473 L91.29,-0.364 L91.513,-0.261 L91.723,-0.164 L91.919,-0.073 L91.919,0.073 L91.723,0.164 L91.513,0.261 L91.29,0.364 L91.053,0.473 L90.803,0.587 L90.54,0.708 L90.264,0.834 L89.975,0.966 L89.672,1.103 L89.356,1.245 L89.028,1.393 L88.686,1.546 L88.331,1.704 L87.964,1.867 L87.583,2.035 L87.19,2.208 L86.784,2.386 L86.366,2.568 L85.935,2.755 L85.491,2.946 L85.035,3.141 L84.566,3.341 L84.085,3.544 L83.592,3.751 L83.086,3.962 L82.569,4.176 L82.039,4.394 L81.498,4.615 L80.944,4.839 L80.379,5.066 L79.802,5.296 L79.213,5.528 L78.613,5.763 L78.001,6 L77.378,6.24 L76.743,6.481 L76.098,6.724 L75.441,6.968 L74.773,7.214 L74.094,7.461 L73.405,7.709 L72.705,7.958 L71.994,8.207 L71.272,8.457 L70.541,8.706 L69.799,8.956 L69.046,9.206 L68.284,9.455 L67.512,9.703 L66.73,9.95 L65.938,10.196 L65.136,10.44 L64.325,10.683 L63.505,10.924 L62.675,11.162 L61.836,11.398 L60.988,11.631 L60.132,11.862 L59.266,12.088 L58.392,12.311 L57.509,12.53 L56.618,12.745 L55.719,12.954 L54.811,13.159 L53.895,13.358 L52.972,13.552 L52.041,13.739 L51.102,13.919 L50.156,14.092 L49.202,14.258 L48.242,14.414 L47.274,14.562 L46.299,14.701 L45.318,14.828 L44.33,14.944 L43.335,15.047 L42.335,15.135 L41.328,15.207 L40.315,15.257 L39.296,15.275 L38.271,15.275 L37.241,15.275 L36.205,15.275 L35.164,15.275 L34.118,15.275 L33.067,15.275 L32.011,15.275 L30.95,15.275 L29.885,15.275 L28.816,15.275 L27.742,15.275 L26.664,15.275 L25.583,15.275 L24.497,15.275 L23.409,15.275 L22.316,15.275 L21.221,15.275 L20.122,15.275 L19.02,15.275 L17.916,15.275 L16.809,15.275 L15.699,15.275 L14.588,15.275 L13.474,15.275 L12.358,15.275 L11.24,15.275 L10.121,15.275 L9,15.275 L7.878,15.275 L6.755,15.275 L5.63,15.275 L4.505,15.275 L3.379,15.275 L2.253,15.275 L1.127,15.275 L-0,15.275 L-1.127,15.275 L-2.253,15.275 L-3.379,15.275 L-4.505,15.275 L-5.63,15.275 L-6.755,15.275 L-7.878,15.275 L-9,15.275 L-10.121,15.275 L-11.24,15.275 L-12.358,15.275 L-13.474,15.275 L-14.588,15.275 L-15.699,15.275 L-16.809,15.275 L-17.916,15.275 L-19.02,15.275 L-20.122,15.275 L-21.221,15.275 L-22.316,15.275 L-23.409,15.275 L-24.497,15.275 L-25.583,15.275 L-26.664,15.275 L-27.742,15.275 L-28.816,15.275 L-29.885,15.275 L-30.95,15.275 L-32.011,15.275 L-33.067,15.275 L-34.118,15.275 L-35.164,15.275 L-36.205,15.275 L-37.241,15.275 L-38.271,15.275 L-39.296,15.275 L-40.315,15.275 L-41.328,15.275 L-42.335,15.275 L-43.335,15.275 L-44.33,15.275 L-45.318,15.275 L-46.299,15.275 L-47.274,15.275 L-48.242,15.275 L-49.202,15.275 L-50.156,15.275 L-51.102,15.275 L-52.041,15.275 L-52.972,15.275 L-53.895,15.275 L-54.811,15.275 L-55.719,15.275 L-56.618,15.275 L-57.509,15.275 L-58.392,15.275 L-59.266,15.275 L-60.132,15.274 L-60.988,15.268 L-61.836,15.256 L-62.675,15.238 L-63.505,15.215 L-64.325,15.187 L-65.136,15.153 L-65.938,15.114 L-66.73,15.07 L-67.512,15.022 L-68.284,14.968 L-69.046,14.911 L-69.799,14.848 L-70.541,14.781 L-71.272,14.71 L-71.994,14.635 L-72.705,14.556 L-73.405,14.473 L-74.094,14.386 L-74.773,14.295 L-75.441,14.201 L-76.098,14.102 L-76.743,14.001 L-77.378,13.896 L-78.001,13.788 L-78.613,13.676 L-79.213,13.561 L-79.802,13.443 L-80.379,13.323 L-80.944,13.199 L-81.498,13.072 L-82.039,12.943 L-82.569,12.811 L-83.086,12.676 L-83.592,12.539 L-84.085,12.399 L-84.566,12.257 L-85.035,12.112 L-85.491,11.965 L-85.935,11.816 L-86.366,11.665 L-86.784,11.512 L-87.19,11.357 L-87.583,11.199 L-87.964,11.04 L-88.331,10.88 L-88.686,10.717 L-89.028,10.553 L-89.356,10.387 L-89.672,10.22 L-89.975,10.051 L-90.264,9.881 L-90.54,9.709 L-90.803,9.536 L-91.053,9.362 L-91.29,9.187 L-91.513,9.011 L-91.723,8.834 L-91.919,8.655 L-92.102,8.476 L-92.271,8.296 L-92.428,8.116 L-92.57,7.934 L-92.699,7.752 L-92.815,7.57 L-92.917,7.387 L-93.005,7.203 L-93.08,7.019 L-93.141,6.835 L-93.189,6.651 L-93.223,6.466 L-93.243,6.281 L-93.25,6.097 Z"/></clipPath></defs><path d="M-15.62,-5.697 L-10.08,-5.697 A4.785,4.785 0 0 1 -5.295,-0.912 L-5.295,0.912 A4.785,4.785 0 0 1 -10.08,5.697 L-15.62,5.697 A1,1 0 0 1 -16.62,4.697 L-16.62,-4.697 A1,1 0 0 1 -15.62,-5.697 Z" fill="#a3abb2" stroke="#1c2126" stroke-width="0.12" stroke-linejoin="round"/><path d="M-15.62,-5.697 L-10.08,-5.697 A4.785,4.785 0 0 1 -5.295,-0.912 L-5.295,0.912 A4.785,4.785 0 0 1 -10.08,5.697 L-15.62,5.697 A1,1 0 0 1 -16.62,4.697 L-16.62,-4.697 A1,1 0 0 1 -15.62,-5.697 Z" fill="none" stroke="#bac0c5" stroke-width="0.108" transform="translate(-0.072,-0.072)" stroke-opacity="0.7"/><path d="M-14.487,-4.444 L-10.076,-4.444 A4.102,4.102 0 0 1 -5.974,-0.342 L-5.974,0.342 A4.102,4.102 0 0 1 -10.076,4.444 L-14.487,4.444 A1,1 0 0 1 -15.487,3.444 L-15.487,-3.444 A1,1 0 0 1 -14.487,-4.444 Z" fill="#b6bdc3" stroke="#1c2126" stroke-width="0.12" stroke-linejoin="round"/><path d="M-14.487,-4.444 L-10.076,-4.444 A4.102,4.102 0 0 1 -5.974,-0.342 L-5.974,0.342 A4.102,4.102 0 0 1 -10.076,4.444 L-14.487,4.444 A1,1 0 0 1 -15.487,3.444 L-15.487,-3.444 A1,1 0 0 1 -14.487,-4.444 Z" fill="none" stroke="#c8ced2" stroke-width="0.108" transform="translate(-0.072,-0.072)" stroke-opacity="0.7"/><path d="M-10.108,-2.848 L-10.108,-2.848 A2.548,2.548 0 0 1 -7.56,-0.3 L-7.56,0.3 A2.548,2.548 0 0 1 -10.108,2.848 L-10.108,2.848 A2.548,2.548 0 0 1 -12.656,0.3 L-12.656,-0.3 A2.548,2.548 0 0 1 -10.108,-2.848 Z" fill="#c7cdd2" stroke="#1c2126" stroke-width="0.12" stroke-linejoin="round"/><path d="M-10.108,-2.848 L-10.108,-2.848 A2.548,2.548 0 0 1 -7.56,-0.3 L-7.56,0.3 A2.548,2.548 0 0 1 -10.108,2.848 L-10.108,2.848 A2.548,2.548 0 0 1 -12.656,0.3 L-12.656,-0.3 A2.548,2.548 0 0 1 -10.108,-2.848 Z" fill="none" stroke="#d5dadd" stroke-width="0.108" transform="translate(-0.072,-0.072)" stroke-opacity="0.7"/><path d="M-70.316,-4.431 L-64.089,-4.431 A1,1 0 0 1 -63.089,-3.431 L-63.089,3.431 A1,1 0 0 1 -64.089,4.431 L-70.316,4.431 A3.165,3.165 0 0 1 -73.481,1.266 L-73.481,-1.266 A3.165,3.165 0 0 1 -70.316,-4.431 Z" fill="#a3abb2" stroke="#1c2126" stroke-width="0.12" stroke-linejoin="round"/><path d="M-70.316,-4.431 L-64.089,-4.431 A1,1 0 0 1 -63.089,-3.431 L-63.089,3.431 A1,1 0 0 1 -64.089,4.431 L-70.316,4.431 A3.165,3.165 0 0 1 -73.481,1.266 L-73.481,-1.266 A3.165,3.165 0 0 1 -70.316,-4.431 Z" fill="none" stroke="#bac0c5" stroke-width="0.108" transform="translate(-0.072,-0.072)" stroke-opacity="0.7"/><path d="M-68.285,-2.69 L-68.285,-2.69 A2.598,2.598 0 0 1 -65.687,-0.092 L-65.687,0.092 A2.598,2.598 0 0 1 -68.285,2.69 L-68.285,2.69 A2.598,2.598 0 0 1 -70.883,0.092 L-70.883,-0.092 A2.598,2.598 0 0 1 -68.285,-2.69 Z" fill="#b6bdc3" stroke="#1c2126" stroke-width="0.12" stroke-linejoin="round"/><path d="M-68.285,-2.69 L-68.285,-2.69 A2.598,2.598 0 0 1 -65.687,-0.092 L-65.687,0.092 A2.598,2.598 0 0 1 -68.285,2.69 L-68.285,2.69 A2.598,2.598 0 0 1 -70.883,0.092 L-70.883,-0.092 A2.598,2.598 0 0 1 -68.285,-2.69 Z" fill="none" stroke="#c8ced2" stroke-width="0.108" transform="translate(-0.072,-0.072)" stroke-opacity="0.7"/><path d="M-35.91,-2.472 L-33.437,-2.472 A2.472,2.472 0 0 1 -30.965,0 L-30.965,0 A2.472,2.472 0 0 1 -33.437,2.472 L-35.91,2.472 A2.472,2.472 0 0 1 -38.382,0 L-38.382,0 A2.472,2.472 0 0 1 -35.91,-2.472 Z" fill="#8a939b" stroke="#1c2126" stroke-width="0.12" stroke-linejoin="round"/><path d="M-35.91,-1.872 L-33.437,-1.872 A1.872,1.872 0 0 1 -31.565,0 L-31.565,0 A1.872,1.872 0 0 1 -33.437,1.872 L-35.91,1.872 A1.872,1.872 0 0 1 -37.782,0 L-37.782,0 A1.872,1.872 0 0 1 -35.91,-1.872 Z" fill="#2b2f33"/><ellipse cx="-36.228" cy="0" rx="1.304" ry="1.472" fill="#0b0d0f"/><ellipse cx="-33.119" cy="0" rx="1.304" ry="1.472" fill="#0b0d0f"/><path d="M-35.91,-2.472 L-33.437,-2.472 A2.472,2.472 0 0 1 -30.965,0 L-30.965,0 A2.472,2.472 0 0 1 -33.437,2.472 L-35.91,2.472 A2.472,2.472 0 0 1 -38.382,0 L-38.382,0 A2.472,2.472 0 0 1 -35.91,-2.472 Z" fill="none" stroke="#adb3b9" stroke-width="0.12" transform="translate(-0.072,-0.072)" stroke-opacity="0.6"/><line x1="-17.82" y1="-4.747" x2="-17.82" y2="4.747" stroke="#30363b" stroke-width="0.35" stroke-linecap="round"/><line x1="-17.82" y1="0" x2="-21.284" y2="3" stroke="#30363b" stroke-width="0.3" stroke-linecap="round"/><line x1="-17.82" y1="0" x2="-21.284" y2="-3" stroke="#30363b" stroke-width="0.3" stroke-linecap="round"/><circle cx="-17.82" cy="0" r="0.7" fill="#30363b" stroke="#1c2126" stroke-width="0.072" stroke-linejoin="round"/><line x1="-68.285" y1="-3.482" x2="-68.285" y2="3.482" stroke="#30363b" stroke-width="0.35" stroke-linecap="round"/><circle cx="-68.285" cy="0" r="0.7" fill="#30363b" stroke="#1c2126" stroke-width="0.072" stroke-linejoin="round"/></svg>