<svg xmlns="http://www.w3.org/2000/svg" width="896" height="192" viewBox="-44.8 -9.6 89.6 19.2" shape-rendering="geometricPrecision"><defs><clipPath id="hullclip"><path d="M-40.5,-4.189 L-40.497,-4.212 L-40.488,-4.234 L-40.473,-4.257 L-40.453,-4.28 L-40.426,-4.303 L-40.394,-4.325 L-40.355,-4.348 L-40.311,-4.371 L-40.261,-4.393 L-40.205,-4.416 L-40.143,-4.438 L-40.075,-4.46 L-40.001,-4.483 L-39.922,-4.505 L-39.837,-4.527 L-39.745,-4.549 L-39.649,-4.571 L-39.546,-4.593 L-39.437,-4.614 L-39.323,-4.636 L-39.203,-4.657 L-39.077,-4.679 L-38.946,-4.7 L-38.809,-4.721 L-38.666,-4.742 L-38.518,-4.763 L-38.364,-4.783 L-38.204,-4.804 L-38.039,-4.824 L-37.868,-4.844 L-37.692,-4.864 L-37.51,-4.884 L-37.323,-4.903 L-37.13,-4.922 L-36.932,-4.941 L-36.728,-4.96 L-36.52,-4.979 L-36.305,-4.998 L-36.086,-5.016 L-35.861,-5.034 L-35.631,-5.052 L-35.396,-5.069 L-35.155,-5.086 L-34.91,-5.103 L-34.659,-5.12 L-34.403,-5.137 L-34.143,-5.153 L-33.877,-5.169 L-33.606,-5.185 L-33.331,-5.2 L-33.05,-5.215 L-32.765,-5.23 L-32.475,-5.245 L-32.18,-5.259 L-31.881,-5.273 L-31.577,-5.287 L-31.268,-5.3 L-30.955,-5.314 L-30.637,-5.326 L-30.315,-5.339 L-29.988,-5.351 L-29.657,-5.363 L-29.321,-5.375 L-28.982,-5.386 L-28.638,-5.397 L-28.29,-5.408 L-27.937,-5.418 L-27.581,-5.428 L-27.221,-5.438 L-26.856,-5.447 L-26.488,-5.456 L-26.116,-5.465 L-25.74,-5.473 L-25.361,-5.481 L-24.977,-5.489 L-24.59,-5.496 L-24.199,-5.503 L-23.805,-5.51 L-23.408,-5.517 L-23.007,-5.523 L-22.602,-5.529 L-22.195,-5.534 L-21.784,-5.539 L-21.369,-5.544 L-20.952,-5.549 L-20.532,-5.553 L-20.109,-5.557 L-19.682,-5.561 L-19.253,-5.564 L-18.821,-5.567 L-18.387,-5.57 L-17.949,-5.572 L-17.509,-5.575 L-17.067,-5.577 L-16.622,-5.578 L-16.174,-5.58 L-15.724,-5.581 L-15.272,-5.582 L-14.818,-5.583 L-14.361,-5.584 L-13.903,-5.584 L-13.442,-5.585 L-12.98,-5.585 L-12.515,-5.585 L-12.049,-5.585 L-11.581,-5.585 L-11.111,-5.585 L-10.64,-5.585 L-10.167,-5.585 L-9.692,-5.585 L-9.216,-5.585 L-8.739,-5.585 L-8.261,-5.585 L-7.781,-5.585 L-7.3,-5.585 L-6.818,-5.585 L-6.336,-5.585 L-5.852,-5.585 L-5.367,-5.585 L-4.882,-5.585 L-4.396,-5.585 L-3.909,-5.585 L-3.421,-5.585 L-2.934,-5.585 L-2.445,-5.585 L-1.957,-5.585 L-1.468,-5.585 L-0.979,-5.585 L-0.489,-5.585 L-0,-5.585 L0.489,-5.585 L0.979,-5.585 L1.468,-5.585 L1.957,-5.585 L2.445,-5.585 L2.934,-5.585 L3.421,-5.585 L3.909,-5.585 L4.396,-5.585 L4.882,-5.585 L5.367,-5.585 L5.852,-5.585 L6.336,-5.585 L6.818,-5.585 L7.3,-5.585 L7.781,-5.585 L8.261,-5.585 L8.739,-5.585 L9.216,-5.584 L9.692,-5.583 L10.167,-5.581 L10.64,-5.578 L11.111,-5.574 L11.581,-5.569 L12.049,-5.563 L12.515,-5.555 L12.98,-5.546 L13.442,-5.535 L13.903,-5.523 L14.361,-5.509 L14.818,-5.493 L15.272,-5.476 L15.724,-5.457 L16.174,-5.436 L16.622,-5.413 L17.067,-5.389 L17.509,-5.362 L17.949,-5.334 L18.387,-5.303 L18.821,-5.271 L19.253,-5.237 L19.682,-5.2 L20.109,-5.162 L20.532,-5.122 L20.952,-5.08 L21.369,-5.036 L21.784,-4.99 L22.195,-4.942 L22.602,-4.893 L23.007,-4.841 L23.408,-4.788 L23.805,-4.733 L24.199,-4.676 L24.59,-4.618 L24.977,-4.557 L25.361,-4.495 L25.74,-4.432 L26.116,-4.367 L26.488,-4.3 L26.856,-4.232 L27.221,-4.163 L27.581,-4.092 L27.937,-4.02 L28.29,-3.947 L28.638,-3.873 L28.982,-3.797 L29.321,-3.721 L29.657,-3.643 L29.988,-3.565 L30.315,-3.485 L30.637,-3.405 L30.955,-3.325 L31.268,-3.243 L31.577,-3.162 L31.881,-3.079 L32.18,-2.997 L32.475,-2.914 L32.765,-2.83 L33.05,-2.747 L33.331,-2.663 L33.606,-2.58 L33.877,-2.497 L34.143,-2.413 L34.403,-2.33 L34.659,-2.248 L34.91,-2.166 L35.155,-2.084 L35.396,-2.003 L35.631,-1.922 L35.861,-1.842 L36.086,-1.763 L36.305,-1.685 L36.52,-1.608 L36.728,-1.532 L36.932,-1.456 L37.13,-1.383 L37.323,-1.31 L37.51,-1.239 L37.692,-1.169 L37.868,-1.1 L38.039,-1.033 L38.204,-0.968 L38.364,-0.904 L38.518,-0.842 L38.666,-0.782 L38.809,-0.724 L38.946,-0.667 L39.077,-0.613 L39.203,-0.561 L39.323,-0.51 L39.437,-0.462 L39.546,-0.416 L39.649,-0.372 L39.745,-0.331 L39.837,-0.291 L39.922,-0.254 L40.001,-0.22 L40.075,-0.188 L40.143,-0.158 L40.205,-0.131 L40.261,-0.106 L40.311,-0.084 L40.355,-0.064 L40.394,-0.047 L40.426,-0.033 L40.453,-0.021 L40.473,-0.012 L40.473,0.012 L40.453,0.021 L40.426,0.033 L40.394,0.047 L40.355,0.064 L40.311,0.084 L40.261,0.106 L40.205,0.131 L40.143,0.158 L40.075,0.188 L40.001,0.22 L39.922,0.254 L39.837,0.291 L39.745,0.331 L39.649,0.372 L39.546,0.416 L39.437,0.462 L39.323,0.51 L39.203,0.561 L39.077,0.613 L38.946,0.667 L38.809,0.724 L38.666,0.782 L38.518,0.842 L38.364,0.904 L38.204,0.968 L38.039,1.033 L37.868,1.1 L37.692,1.169 L37.51,1.239 L37.323,1.31 L37.13,1.383 L36.932,1.456 L36.728,1.532 L36.52,1.608 L36.305,1.685 L36.086,1.763 L35.861,1.842 L35.631,1.922 L35.396,2.003 L35.155,2.084 L34.91,2.166 L34.659,2.248 L34.403,2.33 L34.143,2.413 L33.877,2.497 L33.606,2.58 L33.331,2.663 L33.05,2.747 L32.765,2.83 L32.475,2.914 L32.18,2.997 L31.881,3.079 L31.577,3.162 L31.268,3.243 L30.955,3.325 L30.637,3.405 L30.315,3.485 L29.988,3.565 L29.657,3.643 L29.321,3.721 L28.982,3.797 L28.638,3.873 L28.29,3.947 L27.937,4.02 L27.581,4.092 L27.221,4.163 L26.856,4.232 L26.488,4.3 L26.116,4.367 L25.74,4.432 L25.361,4.495 L24.977,4.557 L24.59,4.618 L24.199,4.676 L23.805,4.733 L23.408,4.788 L23.007,4.841 L22.602,4.893 L22.195,4.942 L21.784,4.99 L21.369,5.036 L20.952,5.08 L20.532,5.122 L20.109,5.162 L19.682,5.2 L19.253,5.237 L18.821,5.271 L18.387,5.303 L17.949,5.334 L17.509,5.362 L17.067,5.389 L16.622,5.413 L16.174,5.436 L15.724,5.457 L15.272,5.476 L14.818,5.493 L14.361,5.509 L13.903,5.523 L13.442,5.535 L12.98,5.546 L12.515,5.555 L12.049,5.563 L11.581,5.569 L11.111,5.574 L10.64,5.578 L10.167,5.581 L9.692,5.583 L9.216,5.584 L8.739,5.585 L8.261,5.585 L7.781,5.585 L7.3,5.585 L6.818,5.585 L6.336,5.585 L5.852,5.585 L5.367,5.585 L4.882,5.585 L4.396,5.585 L3.909,5.585 L3.421,5.585 L2.934,5.585 L2.445,5.585 L1.957,5.585 L1.468,5.585 L0.979,5.585 L0.489,5.585 L-0,5.585 L-0.489,5.585 L-0.979,5.585 L-1.468,5.585 L-1.957,5.585 L-2.445,5.585 L-2.934,5.585 L-3.421,5.585 L-3.909,5.585 L-4.396,5.585 L-4.882,5.585 L-5.367,5.585 L-5.852,5.585 L-6.336,5.585 L-6.818,5.585 L-7.3,5.585 L-7.781,5.585 L-8.261,5.585 L-8.739,5.585 L-9.216,5.585 L-9.692,5.585 L-10.167,5.585 L-10.64,5.585 L-11.111,5.585 L-11.581,5.585 L-12.049,5.585 L-12.515,5.585 L-12.98,5.585 L-13.442,5.585 L-13.903,5.584 L-14.361,5.584 L-14.818,5.583 L-15.272,5.582 L-15.724,5.581 L-16.174,5.58 L-16.622,5.578 L-17.067,5.577 L-17.509,5.575 L-17.949,5.572 L-18.387,5.57 L-18.821,5.567 L-19.253,5.564 L-19.682,5.561 L-20.109,5.557 L-20.532,5.553 L-20.952,5.549 L-21.369,5.544 L-21.784,5.539 L-22.195,5.534 L-22.602,5.529 L-23.007,5.523 L-23.408,5.517 L-23.805,5.51 L-24.199,5.503 L-24.59,5.496 L-24.977,5.489 L-25.361,5.481 L-25.74,5.473 L-26.116,5.465 L-26.488,5.456 L-26.856,5.447 L-27.221,5.438 L-27.581,5.428 L-27.937,5.418 L-28.29,5.408 L-28.638,5.397 L-28.982,5.386 L-29.321,5.375 L-29.657,5.363 L-29.988,5.351 L-30.315,5.339 L-30.637,5.326 L-30.955,5.314 L-31.268,5.3 L-31.577,5.287 L-31.881,5.273 L-32.18,5.259 L-32.475,5.245 L-32.765,5.23 L-33.05,5.215 L-33.331,5.2 L-33.606,5.185 L-33.877,5.169 L-34.143,5.153 L-34.403,5.137 L-34.659,5.12 L-34.91,5.103 L-35.155,5.086 L-35.396,5.069 L-35.631,5.052 L-35.861,5.034 L-36.086,5.016 L-36.305,4.998 L-36.52,4.979 L-36.728,4.96 L-36.932,4.941 L-37.13,4.922 L-37.323,4.903 L-37.51,4.884 L-37.692,4.864 L-37.868,4.844 L-38.039,4.824 L-38.204,4.804 L-38.364,4.783 L-38.518,4.763 L-38.666,4.742 L-38.809,4.721 L-38.946,4.7 L-39.077,4.679 L-39.203,4.657 L-39.323,4.636 L-39.437,4.614 L-39.546,4.593 L-39.649,4.571 L-39.745,4.549 L-39.837,4.527 L-39.922,4.505 L-40.001,4.483 L-40.075,4.46 L-40.143,4.438 L-40.205,4.416 L-40.261,4.393 L-40.311,4.371 L-40.355,4.348 L-40.394,4.325 L-40.426,4.303 L-40.453,4.28 L-40.473,4.257 L-40.488,4.234 L-40.497,4.212 L-40.5,4.189 Z"/></clipPath><clipPath id="deckclip"><path d="M-40.5,-3.639 L-40.497,-3.662 L-40.488,-3.684 L-40.473,-3.707 L-40.453,-3.73 L-40.426,-3.753 L-40.394,-3.775 L-40.355,-3.798 L-40.311,-3.821 L-40.261,-3.843 L-40.205,-3.866 L-40.143,-3.888 L-40.075,-3.91 L-40.001,-3.933 L-39.922,-3.955 L-39.837,-3.977 L-39.745,-3.999 L-39.649,-4.021 L-39.546,-4.043 L-39.437,-4.064 L-39.323,-4.086 L-39.203,-4.107 L-39.077,-4.129 L-38.946,-4.15 L-38.809,-4.171 L-38.666,-4.192 L-38.518,-4.213 L-38.364,-4.233 L-38.204,-4.254 L-38.039,-4.274 L-37.868,-4.294 L-37.692,-4.314 L-37.51,-4.334 L-37.323,-4.353 L-37.13,-4.372 L-36.932,-4.391 L-36.728,-4.41 L-36.52,-4.429 L-36.305,-4.448 L-36.086,-4.466 L-35.861,-4.484 L-35.631,-4.502 L-35.396,-4.519 L-35.155,-4.536 L-34.91,-4.553 L-34.659,-4.57 L-34.403,-4.587 L-34.143,-4.603 L-33.877,-4.619 L-33.606,-4.635 L-33.331,-4.65 L-33.05,-4.665 L-32.765,-4.68 L-32.475,-4.695 L-32.18,-4.709 L-31.881,-4.723 L-31.577,-4.737 L-31.268,-4.75 L-30.955,-4.764 L-30.637,-4.776 L-30.315,-4.789 L-29.988,-4.801 L-29.657,-4.813 L-29.321,-4.825 L-28.982,-4.836 L-28.638,-4.847 L-28.29,-4.858 L-27.937,-4.868 L-27.581,-4.878 L-27.221,-4.888 L-26.856,-4.897 L-26.488,-4.906 L-26.116,-4.915 L-25.74,-4.923 L-25.361,-4.931 L-24.977,-4.939 L-24.59,-4.946 L-24.199,-4.953 L-23.805,-4.96 L-23.408,-4.967 L-23.007,-4.973 L-22.602,-4.979 L-22.195,-4.984 L-21.784,-4.989 L-21.369,-4.994 L-20.952,-4.999 L-20.532,-5.003 L-20.109,-5.007 L-19.682,-5.011 L-19.253,-5.014 L-18.821,-5.017 L-18.387,-5.02 L-17.949,-5.022 L-17.509,-5.025 L-17.067,-5.027 L-16.622,-5.028 L-16.174,-5.03 L-15.724,-5.031 L-15.272,-5.032 L-14.818,-5.033 L-14.361,-5.034 L-13.903,-5.034 L-13.442,-5.035 L-12.98,-5.035 L-12.515,-5.035 L-12.049,-5.035 L-11.581,-5.035 L-11.111,-5.035 L-10.64,-5.035 L-10.167,-5.035 L-9.692,-5.035 L-9.216,-5.035 L-8.739,-5.035 L-8.261,-5.035 L-7.781,-5.035 L-7.3,-5.035 L-6.818,-5.035 L-6.336,-5.035 L-5.852,-5.035 L-5.367,-5.035 L-4.882,-5.035 L-4.396,-5.035 L-3.909,-5.035 L-3.421,-5.035 L-2.934,-5.035 L-2.445,-5.035 L-1.957,-5.035 L-1.468,-5.035 L-0.979,-5.035 L-0.489,-5.035 L-0,-5.035 L0.489,-5.035 L0.979,-5.035 L1.468,-5.035 L1.957,-5.035 L2.445,-5.035 L2.934,-5.035 L3.421,-5.035 L3.909,-5.035 L4.396,-5.035 L4.882,-5.035 L5.367,-5.035 L5.852,-5.035 L6.336,-5.035 L6.818,-5.035 L7.3,-5.035 L7.781,-5.035 L8.261,-5.035 L8.739,-5.035 L9.216,-5.034 L9.692,-5.033 L10.167,-5.031 L10.64,-5.028 L11.111,-5.024 L11.581,-5.019 L12.049,-5.013 L12.515,-5.005 L12.98,-4.996 L13.442,-4.985 L13.903,-4.973 L14.361,-4.959 L14.818,-4.943 L15.272,-4.926 L15.724,-4.907 L16.174,-4.886 L16.622,-4.863 L17.067,-4.839 L17.509,-4.812 L17.949,-4.784 L18.387,-4.753 L18.821,-4.721 L19.253,-4.687 L19.682,-4.65 L20.109,-4.612 L20.532,-4.572 L20.952,-4.53 L21.369,-4.486 L21.784,-4.44 L22.195,-4.392 L22.602,-4.343 L23.007,-4.291 L23.408,-4.238 L23.805,-4.183 L24.199,-4.126 L24.59,-4.068 L24.977,-4.007 L25.361,-3.945 L25.74,-3.882 L26.116,-3.817 L26.488,-3.75 L26.856,-3.682 L27.221,-3.613 L27.581,-3.542 L27.937,-3.47 L28.29,-3.397 L28.638,-3.323 L28.982,-3.247 L29.321,-3.171 L29.657,-3.093 L29.988,-3.015 L30.315,-2.935 L30.637,-2.855 L30.955,-2.775 L31.268,-2.693 L31.577,-2.612 L31.881,-2.529 L32.18,-2.447 L32.475,-2.364 L32.765,-2.28 L33.05,-2.197 L33.331,-2.113 L33.606,-2.03 L33.877,-1.947 L34.143,-1.863 L34.403,-1.78 L34.659,-1.698 L34.91,-1.616 L35.155,-1.534 L35.396,-1.453 L35.631,-1.372 L35.861,-1.292 L36.086,-1.213 L36.305,-1.135 L36.52,-1.058 L36.728,-0.982 L36.932,-0.906 L37.13,-0.833 L37.323,-0.76 L37.51,-0.689 L37.692,-0.619 L37.868,-0.55 L38.039,-0.483 L38.204,-0.418 L38.364,-0.354 L38.518,-0.292 L38.666,-0.232 L38.809,-0.174 L38.946,-0.117 L39.077,-0.063 L39.203,-0.011 L39.203,0.011 L39.077,0.063 L38.946,0.117 L38.809,0.174 L38.666,0.232 L38.518,0.292 L38.364,0.354 L38.204,0.418 L38.039,0.483 L37.868,0.55 L37.692,0.619 L37.51,0.689 L37.323,0.76 L37.13,0.833 L36.932,0.906 L36.728,0.982 L36.52,1.058 L36.305,1.135 L36.086,1.213 L35.861,1.292 L35.631,1.372 L35.396,1.453 L35.155,1.534 L34.91,1.616 L34.659,1.698 L34.403,1.78 L34.143,1.863 L33.877,1.947 L33.606,2.03 L33.331,2.113 L33.05,2.197 L32.765,2.28 L32.475,2.364 L32.18,2.447 L31.881,2.529 L31.577,2.612 L31.268,2.693 L30.955,2.775 L30.637,2.855 L30.315,2.935 L29.988,3.015 L29.657,3.093 L29.321,3.171 L28.982,3.247 L28.638,3.323 L28.29,3.397 L27.937,3.47 L27.581,3.542 L27.221,3.613 L26.856,3.682 L26.488,3.75 L26.116,3.817 L25.74,3.882 L25.361,3.945 L24.977,4.007 L24.59,4.068 L24.199,4.126 L23.805,4.183 L23.408,4.238 L23.007,4.291 L22.602,4.343 L22.195,4.392 L21.784,4.44 L21.369,4.486 L20.952,4.53 L20.532,4.572 L20.109,4.612 L19.682,4.65 L19.253,4.687 L18.821,4.721 L18.387,4.753 L17.949,4.784 L17.509,4.812 L17.067,4.839 L16.622,4.863 L16.174,4.886 L15.724,4.907 L15.272,4.926 L14.818,4.943 L14.361,4.959 L13.903,4.973 L13.442,4.985 L12.98,4.996 L12.515,5.005 L12.049,5.013 L11.581,5.019 L11.111,5.024 L10.64,5.028 L10.167,5.031 L9.692,5.033 L9.216,5.034 L8.739,5.035 L8.261,5.035 L7.781,5.035 L7.3,5.035 L6.818,5.035 L6.336,5.035 L5.852,5.035 L5.367,5.035 L4.882,5.035 L4.396,5.035 L3.909,5.035 L3.421,5.035 L2.934,5.035 L2.445,5.035 L1.957,5.035 L1.468,5.035 L0.979,5.035 L0.489,5.035 L-0,5.035 L-0.489,5.035 L-0.979,5.035 L-1.468,5.035 L-1.957,5.035 L-2.445,5.035 L-2.934,5.035 L-3.421,5.035 L-3.909,5.035 L-4.396,5.035 L-4.882,5.035 L-5.367,5.035 L-5.852,5.035 L-6.336,5.035 L-6.818,5.035 L-7.3,5.035 L-7.781,5.035 L-8.261,5.035 L-8.739,5.035 L-9.216,5.035 L-9.692,5.035 L-10.167,5.035 L-10.64,5.035 L-11.111,5.035 L-11.581,5.035 L-12.049,5.035 L-12.515,5.035 L-12.98,5.035 L-13.442,5.035 L-13.903,5.034 L-14.361,5.034 L-14.818,5.033 L-15.272,5.032 L-15.724,5.031 L-16.174,5.03 L-16.622,5.028 L-17.067,5.027 L-17.509,5.025 L-17.949,5.022 L-18.387,5.02 L-18.821,5.017 L-19.253,5.014 L-19.682,5.011 L-20.109,5.007 L-20.532,5.003 L-20.952,4.999 L-21.369,4.994 L-21.784,4.989 L-22.195,4.984 L-22.602,4.979 L-23.007,4.973 L-23.408,4.967 L-23.805,4.96 L-24.199,4.953 L-24.59,4.946 L-24.977,4.939 L-25.361,4.931 L-25.74,4.923 L-26.116,4.915 L-26.488,4.906 L-26.856,4.897 L-27.221,4.888 L-27.581,4.878 L-27.937,4.868 L-28.29,4.858 L-28.638,4.847 L-28.982,4.836 L-29.321,4.825 L-29.657,4.813 L-29.988,4.801 L-30.315,4.789 L-30.637,4.776 L-30.955,4.764 L-31.268,4.75 L-31.577,4.737 L-31.881,4.723 L-32.18,4.709 L-32.475,4.695 L-32.765,4.68 L-33.05,4.665 L-33.331,4.65 L-33.606,4.635 L-33.877,4.619 L-34.143,4.603 L-34.403,4.587 L-34.659,4.57 L-34.91,4.553 L-35.155,4.536 L-35.396,4.519 L-35.631,4.502 L-35.861,4.484 L-36.086,4.466 L-36.305,4.448 L-36.52,4.429 L-36.728,4.41 L-36.932,4.391 L-37.13,4.372 L-37.323,4.353 L-37.51,4.334 L-37.692,4.314 L-37.868,4.294 L-38.039,4.274 L-38.204,4.254 L-38.364,4.233 L-38.518,4.213 L-38.666,4.192 L-38.809,4.171 L-38.946,4.15 L-39.077,4.129 L-39.203,4.107 L-39.323,4.086 L-39.437,4.064 L-39.546,4.043 L-39.649,4.021 L-39.745,3.999 L-39.837,3.977 L-39.922,3.955 L-40.001,3.933 L-40.075,3.91 L-40.143,3.888 L-40.205,3.866 L-40.261,3.843 L-40.311,3.821 L-40.355,3.798 L-40.394,3.775 L-40.426,3.753 L-40.453,3.73 L-40.473,3.707 L-40.488,3.684 L-40.497,3.662 L-40.5,3.639 Z"/></clipPath></defs><path d="M-40.5,-4.189 L-40.497,-4.212 L-40.488,-4.234 L-40.473,-4.257 L-40.453,-4.28 L-40.426,-4.303 L-40.394,-4.325 L-40.355,-4.348 L-40.311,-4.371 L-40.261,-4.393 L-40.205,-4.416 L-40.143,-4.438 L-40.075,-4.46 L-40.001,-4.483 L-39.922,-4.505 L-39.837,-4.527 L-39.745,-4.549 L-39.649,-4.571 L-39.546,-4.593 L-39.437,-4.614 L-39.323,-4.636 L-39.203,-4.657 L-39.077,-4.679 L-38.946,-4.7 L-38.809,-4.721 L-38.666,-4.742 L-38.518,-4.763 L-38.364,-4.783 L-38.204,-4.804 L-38.039,-4.824 L-37.868,-4.844 L-37.692,-4.864 L-37.51,-4.884 L-37.323,-4.903 L-37.13,-4.922 L-36.932,-4.941 L-36.728,-4.96 L-36.52,-4.979 L-36.305,-4.998 L-36.086,-5.016 L-35.861,-5.034 L-35.631,-5.052 L-35.396,-5.069 L-35.155,-5.086 L-34.91,-5.103 L-34.659,-5.12 L-34.403,-5.137 L-34.143,-5.153 L-33.877,-5.169 L-33.606,-5.185 L-33.331,-5.2 L-33.05,-5.215 L-32.765,-5.23 L-32.475,-5.245 L-32.18,-5.259 L-31.881,-5.273 L-31.577,-5.287 L-31.268,-5.3 L-30.955,-5.314 L-30.637,-5.326 L-30.315,-5.339 L-29.988,-5.351 L-29.657,-5.363 L-29.321,-5.375 L-28.982,-5.386 L-28.638,-5.397 L-28.29,-5.408 L-27.937,-5.418 L-27.581,-5.428 L-27.221,-5.438 L-26.856,-5.447 L-26.488,-5.456 L-26.116,-5.465 L-25.74,-5.473 L-25.361,-5.481 L-24.977,-5.489 L-24.59,-5.496 L-24.199,-5.503 L-23.805,-5.51 L-23.408,-5.517 L-23.007,-5.523 L-22.602,-5.529 L-22.195,-5.534 L-21.784,-5.539 L-21.369,-5.544 L-20.952,-5.549 L-20.532,-5.553 L-20.109,-5.557 L-19.682,-5.561 L-19.253,-5.564 L-18.821,-5.567 L-18.387,-5.57 L-17.949,-5.572 L-17.509,-5.575 L-17.067,-5.577 L-16.622,-5.578 L-16.174,-5.58 L-15.724,-5.581 L-15.272,-5.582 L-14.818,-5.583 L-14.361,-5.584 L-13.903,-5.584 L-13.442,-5.585 L-12.98,-5.585 L-12.515,-5.585 L-12.049,-5.585 L-11.581,-5.585 L-11.111,-5.585 L-10.64,-5.585 L-10.167,-5.585 L-9.692,-5.585 L-9.216,-5.585 L-8.739,-5.585 L-8.261,-5.585 L-7.781,-5.585 L-7.3,-5.585 L-6.818,-5.585 L-6.336,-5.585 L-5.852,-5.585 L-5.367,-5.585 L-4.882,-5.585 L-4.396,-5.585 L-3.909,-5.585 L-3.421,-5.585 L-2.934,-5.585 L-2.445,-5.585 L-1.957,-5.585 L-1.468,-5.585 L-0.979,-5.585 L-0.489,-5.585 L-0,-5.585 L0.489,-5.585 L0.979,-5.585 L1.468,-5.585 L1.957,-5.585 L2.445,-5.585 L2.934,-5.585 L3.421,-5.585 L3.909,-5.585 L4.396,-5.585 L4.882,-5.585 L5.367,-5.585 L5.852,-5.585 L6.336,-5.585 L6.818,-5.585 L7.3,-5.585 L7.781,-5.585 L8.261,-5.585 L8.739,-5.585 L9.216,-5.584 L9.692,-5.583 L10.167,-5.581 L10.64,-5.578 L11.111,-5.574 L11.581,-5.569 L12.049,-5.563 L12.515,-5.555 L12.98,-5.546 L13.442,-5.535 L13.903,-5.523 L14.361,-5.509 L14.818,-5.493 L15.272,-5.476 L15.724,-5.457 L16.174,-5.436 L16.622,-5.413 L17.067,-5.389 L17.509,-5.362 L17.949,-5.334 L18.387,-5.303 L18.821,-5.271 L19.253,-5.237 L19.682,-5.2 L20.109,-5.162 L20.532,-5.122 L20.952,-5.08 L21.369,-5.036 L21.784,-4.99 L22.195,-4.942 L22.602,-4.893 L23.007,-4.841 L23.408,-4.788 L23.805,-4.733 L24.199,-4.676 L24.59,-4.618 L24.977,-4.557 L25.361,-4.495 L25.74,-4.432 L26.116,-4.367 L26.488,-4.3 L26.856,-4.232 L27.221,-4.163 L27.581,-4.092 L27.937,-4.02 L28.29,-3.947 L28.638,-3.873 L28.982,-3.797 L29.321,-3.721 L29.657,-3.643 L29.988,-3.565 L30.315,-3.485 L30.637,-3.405 L30.955,-3.325 L31.268,-3.243 L31.577,-3.162 L31.881,-3.079 L32.18,-2.997 L32.475,-2.914 L32.765,-2.83 L33.05,-2.747 L33.331,-2.663 L33.606,-2.58 L33.877,-2.497 L34.143,-2.413 L34.403,-2.33 L34.659,-2.248 L34.91,-2.166 L35.155,-2.084 L35.396,-2.003 L35.631,-1.922 L35.861,-1.842 L36.086,-1.763 L36.305,-1.685 L36.52,-1.608 L36.728,-1.532 L36.932,-1.456 L37.13,-1.383 L37.323,-1.31 L37.51,-1.239 L37.692,-1.169 L37.868,-1.1 L38.039,-1.033 L38.204,-0.968 L38.364,-0.904 L38.518,-0.842 L38.666,-0.782 L38.809,-0.724 L38.946,-0.667 L39.077,-0.613 L39.203,-0.561 L39.323,-0.51 L39.437,-0.462 L39.546,-0.416 L39.649,-0.372 L39.745,-0.331 L39.837,-0.291 L39.922,-0.254 L40.001,-0.22 L40.075,-0.188 L40.143,-0.158 L40.205,-0.131 L40.261,-0.106 L40.311,-0.084 L40.355,-0.064 L40.394,-0.047 L40.426,-0.033 L40.453,-0.021 L40.473,-0.012 L40.473,0.012 L40.453,0.021 L40.426,0.033 L40.394,0.047 L40.355,0.064 L40.311,0.084 L40.261,0.106 L40.205,0.131 L40.143,0.158 L40.075,0.188 L40.001,0.22 L39.922,0.254 L39.837,0.291 L39.745,0.331 L39.649,0.372 L39.546,0.416 L39.437,0.462 L39.323,0.51 L39.203,0.561 L39.077,0.613 L38.946,0.667 L38.809,0.724 L38.666,0.782 L38.518,0.842 L38.364,0.904 L38.204,0.968 L38.039,1.033 L37.868,1.1 L37.692,1.169 L37.51,1.239 L37.323,1.31 L37.13,1.383 L36.932,1.456 L36.728,1.532 L36.52,1.608 L36.305,1.685 L36.086,1.763 L35.861,1.842 L35.631,1.922 L35.396,2.003 L35.155,2.084 L34.91,2.166 L34.659,2.248 L34.403,2.33 L34.143,2.413 L33.877,2.497 L33.606,2.58 L33.331,2.663 L33.05,2.747 L32.765,2.83 L32.475,2.914 L32.18,2.997 L31.881,3.079 L31.577,3.162 L31.268,3.243 L30.955,3.325 L30.637,3.405 L30.315,3.485 L29.988,3.565 L29.657,3.643 L29.321,3.721 L28.982,3.797 L28.638,3.873 L28.29,3.947 L27.937,4.02 L27.581,4.092 L27.221,4.163 L26.856,4.232 L26.488,4.3 L26.116,4.367 L25.74,4.432 L25.361,4.495 L24.977,4.557 L24.59,4.618 L24.199,4.676 L23.805,4.733 L23.408,4.788 L23.007,4.841 L22.602,4.893 L22.195,4.942 L21.784,4.99 L21.369,5.036 L20.952,5.08 L20.532,5.122 L20.109,5.162 L19.682,5.2 L19.253,5.237 L18.821,5.271 L18.387,5.303 L17.949,5.334 L17.509,5.362 L17.067,5.389 L16.622,5.413 L16.174,5.436 L15.724,5.457 L15.272,5.476 L14.818,5.493 L14.361,5.509 L13.903,5.523 L13.442,5.535 L12.98,5.546 L12.515,5.555 L12.049,5.563 L11.581,5.569 L11.111,5.574 L10.64,5.578 L10.167,5.581 L9.692,5.583 L9.216,5.584 L8.739,5.585 L8.261,5.585 L7.781,5.585 L7.3,5.585 L6.818,5.585 L6.336,5.585 L5.852,5.585 L5.367,5.585 L4.882,5.585 L4.396,5.585 L3.909,5.585 L3.421,5.585 L2.934,5.585 L2.445,5.585 L1.957,5.585 L1.468,5.585 L0.979,5.585 L0.489,5.585 L-0,5.585 L-0.489,5.585 L-0.979,5.585 L-1.468,5.585 L-1.957,5.585 L-2.445,5.585 L-2.934,5.585 L-3.421,5.585 L-3.909,5.585 L-4.396,5.585 L-4.882,5.585 L-5.367,5.585 L-5.852,5.585 L-6.336,5.585 L-6.818,5.585 L-7.3,5.585 L-7.781,5.585 L-8.261,5.585 L-8.739,5.585 L-9.216,5.585 L-9.692,5.585 L-10.167,5.585 L-10.64,5.585 L-11.111,5.585 L-11.581,5.585 L-12.049,5.585 L-12.515,5.585 L-12.98,5.585 L-13.442,5.585 L-13.903,5.584 L-14.361,5.584 L-14.818,5.583 L-15.272,5.582 L-15.724,5.581 L-16.174,5.58 L-16.622,5.578 L-17.067,5.577 L-17.509,5.575 L-17.949,5.572 L-18.387,5.57 L-18.821,5.567 L-19.253,5.564 L-19.682,5.561 L-20.109,5.557 L-20.532,5.553 L-20.952,5.549 L-21.369,5.544 L-21.784,5.539 L-22.195,5.534 L-22.602,5.529 L-23.007,5.523 L-23.408,5.517 L-23.805,5.51 L-24.199,5.503 L-24.59,5.496 L-24.977,5.489 L-25.361,5.481 L-25.74,5.473 L-26.116,5.465 L-26.488,5.456 L-26.856,5.447 L-27.221,5.438 L-27.581,5.428 L-27.937,5.418 L-28.29,5.408 L-28.638,5.397 L-28.982,5.386 L-29.321,5.375 L-29.657,5.363 L-29.988,5.351 L-30.315,5.339 L-30.637,5.326 L-30.955,5.314 L-31.268,5.3 L-31.577,5.287 L-31.881,5.273 L-32.18,5.259 L-32.475,5.245 L-32.765,5.23 L-33.05,5.215 L-33.331,5.2 L-33.606,5.185 L-33.877,5.169 L-34.143,5.153 L-34.403,5.137 L-34.659,5.12 L-34.91,5.103 L-35.155,5.086 L-35.396,5.069 L-35.631,5.052 L-35.861,5.034 L-36.086,5.016 L-36.305,4.998 L-36.52,4.979 L-36.728,4.96 L-36.932,4.941 L-37.13,4.922 L-37.323,4.903 L-37.51,4.884 L-37.692,4.864 L-37.868,4.844 L-38.039,4.824 L-38.204,4.804 L-38.364,4.783 L-38.518,4.763 L-38.666,4.742 L-38.809,4.721 L-38.946,4.7 L-39.077,4.679 L-39.203,4.657 L-39.323,4.636 L-39.437,4.614 L-39.546,4.593 L-39.649,4.571 L-39.745,4.549 L-39.837,4.527 L-39.922,4.505 L-40.001,4.483 L-40.075,4.46 L-40.143,4.438 L-40.205,4.416 L-40.261,4.393 L-40.311,4.371 L-40.355,4.348 L-40.394,4.325 L-40.426,4.303 L-40.453,4.28 L-40.473,4.257 L-40.488,4.234 L-40.497,4.212 L-40.5,4.189 Z" fill="#4b545d" stroke="#1c2126" stroke-width="0.168" stroke-linejoin="round"/><path d="M-40.5,-3.639 L-40.497,-3.662 L-40.488,-3.684 L-40.473,-3.707 L-40.453,-3.73 L-40.426,-3.753 L-40.394,-3.775 L-40.355,-3.798 L-40.311,-3.821 L-40.261,-3.843 L-40.205,-3.866 L-40.143,-3.888 L-40.075,-3.91 L-40.001,-3.933 L-39.922,-3.955 L-39.837,-3.977 L-39.745,-3.999 L-39.649,-4.021 L-39.546,-4.043 L-39.437,-4.064 L-39.323,-4.086 L-39.203,-4.107 L-39.077,-4.129 L-38.946,-4.15 L-38.809,-4.171 L-38.666,-4.192 L-38.518,-4.213 L-38.364,-4.233 L-38.204,-4.254 L-38.039,-4.274 L-37.868,-4.294 L-37.692,-4.314 L-37.51,-4.334 L-37.323,-4.353 L-37.13,-4.372 L-36.932,-4.391 L-36.728,-4.41 L-36.52,-4.429 L-36.305,-4.448 L-36.086,-4.466 L-35.861,-4.484 L-35.631,-4.502 L-35.396,-4.519 L-35.155,-4.536 L-34.91,-4.553 L-34.659,-4.57 L-34.403,-4.587 L-34.143,-4.603 L-33.877,-4.619 L-33.606,-4.635 L-33.331,-4.65 L-33.05,-4.665 L-32.765,-4.68 L-32.475,-4.695 L-32.18,-4.709 L-31.881,-4.723 L-31.577,-4.737 L-31.268,-4.75 L-30.955,-4.764 L-30.637,-4.776 L-30.315,-4.789 L-29.988,-4.801 L-29.657,-4.813 L-29.321,-4.825 L-28.982,-4.836 L-28.638,-4.847 L-28.29,-4.858 L-27.937,-4.868 L-27.581,-4.878 L-27.221,-4.888 L-26.856,-4.897 L-26.488,-4.906 L-26.116,-4.915 L-25.74,-4.923 L-25.361,-4.931 L-24.977,-4.939 L-24.59,-4.946 L-24.199,-4.953 L-23.805,-4.96 L-23.408,-4.967 L-23.007,-4.973 L-22.602,-4.979 L-22.195,-4.984 L-21.784,-4.989 L-21.369,-4.994 L-20.952,-4.999 L-20.532,-5.003 L-20.109,-5.007 L-19.682,-5.011 L-19.253,-5.014 L-18.821,-5.017 L-18.387,-5.02 L-17.949,-5.022 L-17.509,-5.025 L-17.067,-5.027 L-16.622,-5.028 L-16.174,-5.03 L-15.724,-5.031 L-15.272,-5.032 L-14.818,-5.033 L-14.361,-5.034 L-13.903,-5.034 L-13.442,-5.035 L-12.98,-5.035 L-12.515,-5.035 L-12.049,-5.035 L-11.581,-5.035 L-11.111,-5.035 L-10.64,-5.035 L-10.167,-5.035 L-9.692,-5.035 L-9.216,-5.035 L-8.739,-5.035 L-8.261,-5.035 L-7.781,-5.035 L-7.3,-5.035 L-6.818,-5.035 L-6.336,-5.035 L-5.852,-5.035 L-5.367,-5.035 L-4.882,-5.035 L-4.396,-5.035 L-3.909,-5.035 L-3.421,-5.035 L-2.934,-5.035 L-2.445,-5.035 L-1.957,-5.035 L-1.468,-5.035 L-0.979,-5.035 L-0.489,-5.035 L-0,-5.035 L0.489,-5.035 L0.979,-5.035 L1.468,-5.035 L1.957,-5.035 L2.445,-5.035 L2.934,-5.035 L3.421,-5.035 L3.909,-5.035 L4.396,-5.035 L4.882,-5.035 L5.367,-5.035 L5.852,-5.035 L6.336,-5.035 L6.818,-5.035 L7.3,-5.035 L7.781,-5.035 L8.261,-5.035 L8.739,-5.035 L9.216,-5.034 L9.692,-5.033 L10.167,-5.031 L10.64,-5.028 L11.111,-5.024 L11.581,-5.019 L12.049,-5.013 L12.515,-5.005 L12.98,-4.996 L13.442,-4.985 L13.903,-4.973 L14.361,-4.959 L14.818,-4.943 L15.272,-4.926 L15.724,-4.907 L16.174,-4.886 L16.622,-4.863 L17.067,-4.839 L17.509,-4.812 L17.949,-4.784 L18.387,-4.753 L18.821,-4.721 L19.253,-4.687 L19.682,-4.65 L20.109,-4.612 L20.532,-4.572 L20.952,-4.53 L21.369,-4.486 L21.784,-4.44 L22.195,-4.392 L22.602,-4.343 L23.007,-4.291 L23.408,-4.238 L23.805,-4.183 L24.199,-4.126 L24.59,-4.068 L24.977,-4.007 L25.361,-3.945 L25.74,-3.882 L26.116,-3.817 L26.488,-3.75 L26.856,-3.682 L27.221,-3.613 L27.581,-3.542 L27.937,-3.47 L28.29,-3.397 L28.638,-3.323 L28.982,-3.247 L29.321,-3.171 L29.657,-3.093 L29.988,-3.015 L30.315,-2.935 L30.637,-2.855 L30.955,-2.775 L31.268,-2.693 L31.577,-2.612 L31.881,-2.529 L32.18,-2.447 L32.475,-2.364 L32.765,-2.28 L33.05,-2.197 L33.331,-2.113 L33.606,-2.03 L33.877,-1.947 L34.143,-1.863 L34.403,-1.78 L34.659,-1.698 L34.91,-1.616 L35.155,-1.534 L35.396,-1.453 L35.631,-1.372 L35.861,-1.292 L36.086,-1.213 L36.305,-1.135 L36.52,-1.058 L36.728,-0.982 L36.932,-0.906 L37.13,-0.833 L37.323,-0.76 L37.51,-0.689 L37.692,-0.619 L37.868,-0.55 L38.039,-0.483 L38.204,-0.418 L38.364,-0.354 L38.518,-0.292 L38.666,-0.232 L38.809,-0.174 L38.946,-0.117 L39.077,-0.063 L39.203,-0.011 L39.203,0.011 L39.077,0.063 L38.946,0.117 L38.809,0.174 L38.666,0.232 L38.518,0.292 L38.364,0.354 L38.204,0.418 L38.039,0.483 L37.868,0.55 L37.692,0.619 L37.51,0.689 L37.323,0.76 L37.13,0.833 L36.932,0.906 L36.728,0.982 L36.52,1.058 L36.305,1.135 L36.086,1.213 L35.861,1.292 L35.631,1.372 L35.396,1.453 L35.155,1.534 L34.91,1.616 L34.659,1.698 L34.403,1.78 L34.143,1.863 L33.877,1.947 L33.606,2.03 L33.331,2.113 L33.05,2.197 L32.765,2.28 L32.475,2.364 L32.18,2.447 L31.881,2.529 L31.577,2.612 L31.268,2.693 L30.955,2.775 L30.637,2.855 L30.315,2.935 L29.988,3.015 L29.657,3.093 L29.321,3.171 L28.982,3.247 L28.638,3.323 L28.29,3.397 L27.937,3.47 L27.581,3.542 L27.221,3.613 L26.856,3.682 L26.488,3.75 L26.116,3.817 L25.74,3.882 L25.361,3.945 L24.977,4.007 L24.59,4.068 L24.199,4.126 L23.805,4.183 L23.408,4.238 L23.007,4.291 L22.602,4.343 L22.195,4.392 L21.784,4.44 L21.369,4.486 L20.952,4.53 L20.532,4.572 L20.109,4.612 L19.682,4.65 L19.253,4.687 L18.821,4.721 L18.387,4.753 L17.949,4.784 L17.509,4.812 L17.067,4.839 L16.622,4.863 L16.174,4.886 L15.724,4.907 L15.272,4.926 L14.818,4.943 L14.361,4.959 L13.903,4.973 L13.442,4.985 L12.98,4.996 L12.515,5.005 L12.049,5.013 L11.581,5.019 L11.111,5.024 L10.64,5.028 L10.167,5.031 L9.692,5.033 L9.216,5.034 L8.739,5.035 L8.261,5.035 L7.781,5.035 L7.3,5.035 L6.818,5.035 L6.336,5.035 L5.852,5.035 L5.367,5.035 L4.882,5.035 L4.396,5.035 L3.909,5.035 L3.421,5.035 L2.934,5.035 L2.445,5.035 L1.957,5.035 L1.468,5.035 L0.979,5.035 L0.489,5.035 L-0,5.035 L-0.489,5.035 L-0.979,5.035 L-1.468,5.035 L-1.957,5.035 L-2.445,5.035 L-2.934,5.035 L-3.421,5.035 L-3.909,5.035 L-4.396,5.035 L-4.882,5.035 L-5.367,5.035 L-5.852,5.035 L-6.336,5.035 L-6.818,5.035 L-7.3,5.035 L-7.781,5.035 L-8.261,5.035 L-8.739,5.035 L-9.216,5.035 L-9.692,5.035 L-10.167,5.035 L-10.64,5.035 L-11.111,5.035 L-11.581,5.035 L-12.049,5.035 L-12.515,5.035 L-12.98,5.035 L-13.442,5.035 L-13.903,5.034 L-14.361,5.034 L-14.818,5.033 L-15.272,5.032 L-15.724,5.031 L-16.174,5.03 L-16.622,5.028 L-17.067,5.027 L-17.509,5.025 L-17.949,5.022 L-18.387,5.02 L-18.821,5.017 L-19.253,5.014 L-19.682,5.011 L-20.109,5.007 L-20.532,5.003 L-20.952,4.999 L-21.369,4.994 L-21.784,4.989 L-22.195,4.984 L-22.602,4.979 L-23.007,4.973 L-23.408,4.967 L-23.805,4.96 L-24.199,4.953 L-24.59,4.946 L-24.977,4.939 L-25.361,4.931 L-25.74,4.923 L-26.116,4.915 L-26.488,4.906 L-26.856,4.897 L-27.221,4.888 L-27.581,4.878 L-27.937,4.868 L-28.29,4.858 L-28.638,4.847 L-28.982,4.836 L-29.321,4.825 L-29.657,4.813 L-29.988,4.801 L-30.315,4.789 L-30.637,4.776 L-30.955,4.764 L-31.268,4.75 L-31.577,4.737 L-31.881,4.723 L-32.18,4.709 L-32.475,4.695 L-32.765,4.68 L-33.05,4.665 L-33.331,4.65 L-33.606,4.635 L-33.877,4.619 L-34.143,4.603 L-34.403,4.587 L-34.659,4.57 L-34.91,4.553 L-35.155,4.536 L-35.396,4.519 L-35.631,4.502 L-35.861,4.484 L-36.086,4.466 L-36.305,4.448 L-36.52,4.429 L-36.728,4.41 L-36.932,4.391 L-37.13,4.372 L-37.323,4.353 L-37.51,4.334 L-37.692,4.314 L-37.868,4.294 L-38.039,4.274 L-38.204,4.254 L-38.364,4.233 L-38.518,4.213 L-38.666,4.192 L-38.809,4.171 L-38.946,4.15 L-39.077,4.129 L-39.203,4.107 L-39.323,4.086 L-39.437,4.064 L-39.546,4.043 L-39.649,4.021 L-39.745,3.999 L-39.837,3.977 L-39.922,3.955 L-40.001,3.933 L-40.075,3.91 L-40.143,3.888 L-40.205,3.866 L-40.261,3.843 L-40.311,3.821 L-40.355,3.798 L-40.394,3.775 L-40.426,3.753 L-40.453,3.73 L-40.473,3.707 L-40.488,3.684 L-40.497,3.662 L-40.5,3.639 Z" fill="#7b858e"/><g clip-path="url(#deckclip)" stroke="#3c3328" stroke-width="0.084" stroke-opacity="0.45"><line x1="-40.5" y1="-5.585" x2="40.5" y2="-5.585"/><line x1="-40.5" y1="-4.335" x2="40.5" y2="-4.335"/><line x1="-40.5" y1="-3.085" x2="40.5" y2="-3.085"/><line x1="-40.5" y1="-1.835" x2="40.5" y2="-1.835"/><line x1="-40.5" y1="-0.585" x2="40.5" y2="-0.585"/><line x1="-40.5" y1="0.665" x2="40.5" y2="0.665"/><line x1="-40.5" y1="1.915" x2="40.5" y2="1.915"/><line x1="-40.5" y1="3.165" x2="40.5" y2="3.165"/><line x1="-40.5" y1="4.415" x2="40.5" y2="4.415"/><line x1="-40.5" y1="-5.585" x2="-40.5" y2="5.585" stroke-dasharray="1.25 2.5"/><line x1="-34.5" y1="-5.585" x2="-34.5" y2="5.585" stroke-dasharray="1.25 2.5"/><line x1="-28.5" y1="-5.585" x2="-28.5" y2="5.585" stroke-dasharray="1.25 2.5"/><line x1="-22.5" y1="-5.585" x2="-22.5" y2="5.585" stroke-dasharray="1.25 2.5"/><line x1="-16.5" y1="-5.585" x2="-16.5" y2="5.585" stroke-dasharray="1.25 2.5"/><line x1="-10.5" y1="-5.585" x2="-10.5" y2="5.585" stroke-dasharray="1.25 2.5"/><line x1="-4.5" y1="-5.585" x2="-4.5" y2="5.585" stroke-dasharray="1.25 2.5"/><line x1="1.5" y1="-5.585" x2="1.5" y2="5.585" stroke-dasharray="1.25 2.5"/><line x1="7.5" y1="-5.585" x2="7.5" y2="5.585" stroke-dasharray="1.25 2.5"/><line x1="13.5" y1="-5.585" x2="13.5" y2="5.585" stroke-dasharray="1.25 2.5"/><line x1="19.5" y1="-5.585" x2="19.5" y2="5.585" stroke-dasharray="1.25 2.5"/><line x1="25.5" y1="-5.585" x2="25.5" y2="5.585" stroke-dasharray="1.25 2.5"/><line x1="31.5" y1="-5.585" x2="31.5" y2="5.585" stroke-dasharray="1.25 2.5"/><line x1="37.5" y1="-5.585" x2="37.5" y2="5.585" stroke-dasharray="1.25 2.5"/></g><line x1="35.64" y1="-1.6" x2="37.07" y2="-0.805" stroke="#2a2e32" stroke-width="0.45" stroke-dasharray="0.45 0.25"/><circle cx="35.64" cy="-1.6" r="0.9" fill="#5e666d" stroke="#1c2126" stroke-width="0.12" stroke-linejoin="round"/><path d="M35.87,-1.005 l1.6,-0.6 l0.6,0.9 Z" fill="#2a2e32"/><line x1="35.64" y1="1.6" x2="37.07" y2="0.805" stroke="#2a2e32" stroke-width="0.45" stroke-dasharray="0.45 0.25"/><circle cx="35.64" cy="1.6" r="0.9" fill="#5e666d" stroke="#1c2126" stroke-width="0.12" stroke-linejoin="round"/><path d="M35.87,1.005 l1.6,0.6 l0.6,-0.9 Z" fill="#2a2e32"/><circle cx="36.45" cy="-0.533" r="0.35" fill="#5e666d" stroke="#1c2126" stroke-width="0.072" stroke-linejoin="round"/><circle cx="37.35" cy="-0.533" r="0.35" fill="#5e666d" stroke="#1c2126" stroke-width="0.072" stroke-linejoin="round"/><circle cx="36.45" cy="0.533" r="0.35" fill="#5e666d" stroke="#1c2126" stroke-width="0.072" stroke-linejoin="round"/><circle cx="37.35" cy="0.533" r="0.35" fill="#5e666d" stroke="#1c2126" stroke-width="0.072" stroke-linejoin="round"/><circle cx="-35.64" cy="-3.951" r="0.35" fill="#5e666d" stroke="#1c2126" stroke-width="0.072" stroke-linejoin="round"/><circle cx="-34.74" cy="-3.951" r="0.35" fill="#5e666d" stroke="#1c2126" stroke-width="0.072" stroke-linejoin="round"/><circle cx="-35.64" cy="3.951" r="0.35" fill="#5e666d" stroke="#1c2126" stroke-width="0.072" stroke-linejoin="round"/><circle cx="-34.74" cy="3.951" r="0.35" fill="#5e666d" stroke="#1c2126" stroke-width="0.072" stroke-linejoin="round"/><path d="M-25.35,-4.021 L-4.17,-4.021 A1,1 0 0 1 -3.17,-3.021 L-3.17,3.021 A1,1 0 0 1 -4.17,4.021 L-25.35,4.021 A0.5,0.5 0 0 1 -25.85,3.521 L-25.85,-3.521 A0.5,0.5 0 0 1 -25.35,-4.021 Z" fill="#8e979f" stroke="#1c2126" stroke-width="0.12" stroke-linejoin="round"/><path d="M-25.35,-4.021 L-4.17,-4.021 A1,1 0 0 1 -3.17,-3.021 L-3.17,3.021 A1,1 0 0 1 -4.17,4.021 L-25.35,4.021 A0.5,0.5 0 0 1 -25.85,3.521 L-25.85,-3.521 A0.5,0.5 0 0 1 -25.35,-4.021 Z" fill="none" stroke="#aab1b7" stroke-width="0.108" transform="translate(-0.072,-0.072)" stroke-opacity="0.7"/><path d="M11.89,-2.792 L16.214,-2.792 A1.675,1.675 0 0 1 17.89,-1.117 L17.89,1.117 A1.675,1.675 0 0 1 16.214,2.792 L11.89,2.792 A1,1 0 0 1 10.89,1.792 L10.89,-1.792 A1,1 0 0 1 11.89,-2.792 Z" fill="#8e979f" stroke="#1c2126" stroke-width="0.12" stroke-linejoin="round"/><path d="M11.89,-2.792 L16.214,-2.792 A1.675,1.675 0 0 1 17.89,-1.117 L17.89,1.117 A1.675,1.675 0 0 1 16.214,2.792 L11.89,2.792 A1,1 0 0 1 10.89,1.792 L10.89,-1.792 A1,1 0 0 1 11.89,-2.792 Z" fill="none" stroke="#aab1b7" stroke-width="0.108" transform="translate(-0.072,-0.072)" stroke-opacity="0.7"/><g transform="translate(-14.51,2.971) rotate(90)"><circle r="0.75" fill="#6f7880" stroke="#1c2126" stroke-width="0.12" stroke-linejoin="round"/><circle r="0.54" fill="#596066"/><rect x="0" y="-0.06" width="1.7" height="0.12" fill="#454c53"/><rect x="-0.338" y="-0.338" width="0.6" height="0.675" rx="0.112" fill="#959ea6" stroke="#1c2126" stroke-width="0.084" stroke-linejoin="round"/></g><g transform="translate(-14.51,-2.971) rotate(-90)"><circle r="0.75" fill="#6f7880" stroke="#1c2126" stroke-width="0.12" stroke-linejoin="round"/><circle r="0.54" fill="#596066"/><rect x="0" y="-0.06" width="1.7" height="0.12" fill="#454c53"/><rect x="-0.338" y="-0.338" width="0.6" height="0.675" rx="0.112" fill="#959ea6" stroke="#1c2126" stroke-width="0.084" stroke-linejoin="round"/></g><circle cx="32.467" cy="0" r="1.475" fill="#6c757d" stroke="#1c2126" stroke-width="0.12" stroke-linejoin="round"/><circle cx="32.467" cy="0" r="1.18" fill="#51585e"/><circle cx="-23.797" cy="0" r="1.475" fill="#6c757d" stroke="#1c2126" stroke-width="0.12" stroke-linejoin="round"/><circle cx="-23.797" cy="0" r="1.18" fill="#51585e"/></svg>