<svg xmlns="http://www.w3.org/2000/svg" width="960" height="192" viewBox="-48 -9.6 96 19.2" shape-rendering="geometricPrecision"><defs><clipPath id="hullclip"><path d="M-44,-4.553 L-43.997,-4.577 L-43.987,-4.602 L-43.971,-4.627 L-43.949,-4.651 L-43.92,-4.676 L-43.884,-4.701 L-43.843,-4.725 L-43.795,-4.75 L-43.74,-4.775 L-43.679,-4.799 L-43.612,-4.823 L-43.538,-4.848 L-43.458,-4.872 L-43.372,-4.896 L-43.279,-4.92 L-43.18,-4.944 L-43.075,-4.968 L-42.963,-4.992 L-42.846,-5.015 L-42.721,-5.039 L-42.591,-5.062 L-42.455,-5.085 L-42.312,-5.108 L-42.163,-5.131 L-42.008,-5.154 L-41.846,-5.176 L-41.679,-5.199 L-41.506,-5.221 L-41.326,-5.243 L-41.141,-5.265 L-40.949,-5.286 L-40.752,-5.308 L-40.548,-5.329 L-40.339,-5.35 L-40.124,-5.371 L-39.902,-5.391 L-39.676,-5.411 L-39.443,-5.432 L-39.204,-5.451 L-38.96,-5.471 L-38.71,-5.49 L-38.455,-5.509 L-38.193,-5.528 L-37.927,-5.547 L-37.654,-5.565 L-37.377,-5.583 L-37.093,-5.6 L-36.805,-5.618 L-36.511,-5.635 L-36.211,-5.652 L-35.907,-5.668 L-35.597,-5.684 L-35.282,-5.7 L-34.961,-5.716 L-34.636,-5.731 L-34.306,-5.746 L-33.97,-5.761 L-33.63,-5.775 L-33.285,-5.789 L-32.934,-5.803 L-32.58,-5.816 L-32.22,-5.829 L-31.855,-5.841 L-31.486,-5.854 L-31.113,-5.866 L-30.735,-5.877 L-30.352,-5.888 L-29.965,-5.899 L-29.573,-5.91 L-29.177,-5.92 L-28.777,-5.93 L-28.373,-5.939 L-27.965,-5.948 L-27.552,-5.957 L-27.136,-5.966 L-26.715,-5.974 L-26.291,-5.981 L-25.863,-5.989 L-25.431,-5.996 L-24.995,-6.002 L-24.555,-6.009 L-24.113,-6.015 L-23.666,-6.02 L-23.216,-6.026 L-22.763,-6.031 L-22.306,-6.035 L-21.846,-6.039 L-21.383,-6.043 L-20.917,-6.047 L-20.448,-6.05 L-19.976,-6.053 L-19.5,-6.056 L-19.022,-6.059 L-18.542,-6.061 L-18.058,-6.063 L-17.572,-6.064 L-17.083,-6.066 L-16.592,-6.067 L-16.099,-6.068 L-15.603,-6.069 L-15.104,-6.069 L-14.604,-6.07 L-14.101,-6.07 L-13.597,-6.07 L-13.09,-6.07 L-12.582,-6.07 L-12.071,-6.07 L-11.559,-6.07 L-11.045,-6.07 L-10.53,-6.07 L-10.013,-6.07 L-9.495,-6.07 L-8.975,-6.07 L-8.454,-6.07 L-7.931,-6.07 L-7.408,-6.07 L-6.883,-6.07 L-6.358,-6.07 L-5.831,-6.07 L-5.304,-6.07 L-4.775,-6.07 L-4.247,-6.07 L-3.717,-6.07 L-3.187,-6.07 L-2.657,-6.07 L-2.126,-6.07 L-1.595,-6.07 L-1.063,-6.07 L-0.532,-6.07 L-0,-6.07 L0.532,-6.07 L1.063,-6.07 L1.595,-6.07 L2.126,-6.07 L2.657,-6.07 L3.187,-6.07 L3.717,-6.07 L4.247,-6.07 L4.775,-6.07 L5.304,-6.07 L5.831,-6.07 L6.358,-6.07 L6.883,-6.07 L7.408,-6.07 L7.931,-6.07 L8.454,-6.07 L8.975,-6.07 L9.495,-6.07 L10.013,-6.069 L10.53,-6.068 L11.045,-6.066 L11.559,-6.063 L12.071,-6.059 L12.582,-6.053 L13.09,-6.046 L13.597,-6.038 L14.101,-6.028 L14.604,-6.016 L15.104,-6.003 L15.603,-5.987 L16.099,-5.97 L16.592,-5.952 L17.083,-5.931 L17.572,-5.908 L18.058,-5.883 L18.542,-5.856 L19.022,-5.828 L19.5,-5.797 L19.976,-5.764 L20.448,-5.729 L20.917,-5.691 L21.383,-5.652 L21.846,-5.61 L22.306,-5.567 L22.763,-5.521 L23.216,-5.473 L23.666,-5.424 L24.113,-5.372 L24.555,-5.318 L24.995,-5.262 L25.431,-5.204 L25.863,-5.144 L26.291,-5.082 L26.715,-5.019 L27.136,-4.953 L27.552,-4.886 L27.965,-4.817 L28.373,-4.746 L28.777,-4.674 L29.177,-4.6 L29.573,-4.524 L29.965,-4.448 L30.352,-4.369 L30.735,-4.29 L31.113,-4.209 L31.486,-4.127 L31.855,-4.044 L32.22,-3.959 L32.58,-3.874 L32.934,-3.788 L33.285,-3.701 L33.63,-3.613 L33.97,-3.525 L34.306,-3.436 L34.636,-3.347 L34.961,-3.257 L35.282,-3.167 L35.597,-3.076 L35.907,-2.985 L36.211,-2.895 L36.511,-2.804 L36.805,-2.713 L37.093,-2.623 L37.377,-2.533 L37.654,-2.443 L37.927,-2.354 L38.193,-2.265 L38.455,-2.176 L38.71,-2.089 L38.96,-2.002 L39.204,-1.916 L39.443,-1.831 L39.676,-1.747 L39.902,-1.665 L40.124,-1.583 L40.339,-1.503 L40.548,-1.424 L40.752,-1.346 L40.949,-1.27 L41.141,-1.196 L41.326,-1.123 L41.506,-1.052 L41.679,-0.983 L41.846,-0.915 L42.008,-0.85 L42.163,-0.787 L42.312,-0.725 L42.455,-0.666 L42.591,-0.609 L42.721,-0.554 L42.846,-0.502 L42.963,-0.452 L43.075,-0.404 L43.18,-0.359 L43.279,-0.317 L43.372,-0.276 L43.458,-0.239 L43.538,-0.204 L43.612,-0.172 L43.679,-0.142 L43.74,-0.115 L43.795,-0.091 L43.843,-0.07 L43.884,-0.051 L43.92,-0.036 L43.949,-0.023 L43.971,-0.013 L43.971,0.013 L43.949,0.023 L43.92,0.036 L43.884,0.051 L43.843,0.07 L43.795,0.091 L43.74,0.115 L43.679,0.142 L43.612,0.172 L43.538,0.204 L43.458,0.239 L43.372,0.276 L43.279,0.317 L43.18,0.359 L43.075,0.404 L42.963,0.452 L42.846,0.502 L42.721,0.554 L42.591,0.609 L42.455,0.666 L42.312,0.725 L42.163,0.787 L42.008,0.85 L41.846,0.915 L41.679,0.983 L41.506,1.052 L41.326,1.123 L41.141,1.196 L40.949,1.27 L40.752,1.346 L40.548,1.424 L40.339,1.503 L40.124,1.583 L39.902,1.665 L39.676,1.747 L39.443,1.831 L39.204,1.916 L38.96,2.002 L38.71,2.089 L38.455,2.176 L38.193,2.265 L37.927,2.354 L37.654,2.443 L37.377,2.533 L37.093,2.623 L36.805,2.713 L36.511,2.804 L36.211,2.895 L35.907,2.985 L35.597,3.076 L35.282,3.167 L34.961,3.257 L34.636,3.347 L34.306,3.436 L33.97,3.525 L33.63,3.613 L33.285,3.701 L32.934,3.788 L32.58,3.874 L32.22,3.959 L31.855,4.044 L31.486,4.127 L31.113,4.209 L30.735,4.29 L30.352,4.369 L29.965,4.448 L29.573,4.524 L29.177,4.6 L28.777,4.674 L28.373,4.746 L27.965,4.817 L27.552,4.886 L27.136,4.953 L26.715,5.019 L26.291,5.082 L25.863,5.144 L25.431,5.204 L24.995,5.262 L24.555,5.318 L24.113,5.372 L23.666,5.424 L23.216,5.473 L22.763,5.521 L22.306,5.567 L21.846,5.61 L21.383,5.652 L20.917,5.691 L20.448,5.729 L19.976,5.764 L19.5,5.797 L19.022,5.828 L18.542,5.856 L18.058,5.883 L17.572,5.908 L17.083,5.931 L16.592,5.952 L16.099,5.97 L15.603,5.987 L15.104,6.003 L14.604,6.016 L14.101,6.028 L13.597,6.038 L13.09,6.046 L12.582,6.053 L12.071,6.059 L11.559,6.063 L11.045,6.066 L10.53,6.068 L10.013,6.069 L9.495,6.07 L8.975,6.07 L8.454,6.07 L7.931,6.07 L7.408,6.07 L6.883,6.07 L6.358,6.07 L5.831,6.07 L5.304,6.07 L4.775,6.07 L4.247,6.07 L3.717,6.07 L3.187,6.07 L2.657,6.07 L2.126,6.07 L1.595,6.07 L1.063,6.07 L0.532,6.07 L-0,6.07 L-0.532,6.07 L-1.063,6.07 L-1.595,6.07 L-2.126,6.07 L-2.657,6.07 L-3.187,6.07 L-3.717,6.07 L-4.247,6.07 L-4.775,6.07 L-5.304,6.07 L-5.831,6.07 L-6.358,6.07 L-6.883,6.07 L-7.408,6.07 L-7.931,6.07 L-8.454,6.07 L-8.975,6.07 L-9.495,6.07 L-10.013,6.07 L-10.53,6.07 L-11.045,6.07 L-11.559,6.07 L-12.071,6.07 L-12.582,6.07 L-13.09,6.07 L-13.597,6.07 L-14.101,6.07 L-14.604,6.07 L-15.104,6.069 L-15.603,6.069 L-16.099,6.068 L-16.592,6.067 L-17.083,6.066 L-17.572,6.064 L-18.058,6.063 L-18.542,6.061 L-19.022,6.059 L-19.5,6.056 L-19.976,6.053 L-20.448,6.05 L-20.917,6.047 L-21.383,6.043 L-21.846,6.039 L-22.306,6.035 L-22.763,6.031 L-23.216,6.026 L-23.666,6.02 L-24.113,6.015 L-24.555,6.009 L-24.995,6.002 L-25.431,5.996 L-25.863,5.989 L-26.291,5.981 L-26.715,5.974 L-27.136,5.966 L-27.552,5.957 L-27.965,5.948 L-28.373,5.939 L-28.777,5.93 L-29.177,5.92 L-29.573,5.91 L-29.965,5.899 L-30.352,5.888 L-30.735,5.877 L-31.113,5.866 L-31.486,5.854 L-31.855,5.841 L-32.22,5.829 L-32.58,5.816 L-32.934,5.803 L-33.285,5.789 L-33.63,5.775 L-33.97,5.761 L-34.306,5.746 L-34.636,5.731 L-34.961,5.716 L-35.282,5.7 L-35.597,5.684 L-35.907,5.668 L-36.211,5.652 L-36.511,5.635 L-36.805,5.618 L-37.093,5.6 L-37.377,5.583 L-37.654,5.565 L-37.927,5.547 L-38.193,5.528 L-38.455,5.509 L-38.71,5.49 L-38.96,5.471 L-39.204,5.451 L-39.443,5.432 L-39.676,5.411 L-39.902,5.391 L-40.124,5.371 L-40.339,5.35 L-40.548,5.329 L-40.752,5.308 L-40.949,5.286 L-41.141,5.265 L-41.326,5.243 L-41.506,5.221 L-41.679,5.199 L-41.846,5.176 L-42.008,5.154 L-42.163,5.131 L-42.312,5.108 L-42.455,5.085 L-42.591,5.062 L-42.721,5.039 L-42.846,5.015 L-42.963,4.992 L-43.075,4.968 L-43.18,4.944 L-43.279,4.92 L-43.372,4.896 L-43.458,4.872 L-43.538,4.848 L-43.612,4.823 L-43.679,4.799 L-43.74,4.775 L-43.795,4.75 L-43.843,4.725 L-43.884,4.701 L-43.92,4.676 L-43.949,4.651 L-43.971,4.627 L-43.987,4.602 L-43.997,4.577 L-44,4.553 Z"/></clipPath><clipPath id="deckclip"><path d="M-44,-4.003 L-43.997,-4.027 L-43.987,-4.052 L-43.971,-4.077 L-43.949,-4.101 L-43.92,-4.126 L-43.884,-4.151 L-43.843,-4.175 L-43.795,-4.2 L-43.74,-4.225 L-43.679,-4.249 L-43.612,-4.273 L-43.538,-4.298 L-43.458,-4.322 L-43.372,-4.346 L-43.279,-4.37 L-43.18,-4.394 L-43.075,-4.418 L-42.963,-4.442 L-42.846,-4.465 L-42.721,-4.489 L-42.591,-4.512 L-42.455,-4.535 L-42.312,-4.558 L-42.163,-4.581 L-42.008,-4.604 L-41.846,-4.626 L-41.679,-4.649 L-41.506,-4.671 L-41.326,-4.693 L-41.141,-4.715 L-40.949,-4.736 L-40.752,-4.758 L-40.548,-4.779 L-40.339,-4.8 L-40.124,-4.821 L-39.902,-4.841 L-39.676,-4.861 L-39.443,-4.882 L-39.204,-4.901 L-38.96,-4.921 L-38.71,-4.94 L-38.455,-4.959 L-38.193,-4.978 L-37.927,-4.997 L-37.654,-5.015 L-37.377,-5.033 L-37.093,-5.05 L-36.805,-5.068 L-36.511,-5.085 L-36.211,-5.102 L-35.907,-5.118 L-35.597,-5.134 L-35.282,-5.15 L-34.961,-5.166 L-34.636,-5.181 L-34.306,-5.196 L-33.97,-5.211 L-33.63,-5.225 L-33.285,-5.239 L-32.934,-5.253 L-32.58,-5.266 L-32.22,-5.279 L-31.855,-5.291 L-31.486,-5.304 L-31.113,-5.316 L-30.735,-5.327 L-30.352,-5.338 L-29.965,-5.349 L-29.573,-5.36 L-29.177,-5.37 L-28.777,-5.38 L-28.373,-5.389 L-27.965,-5.398 L-27.552,-5.407 L-27.136,-5.416 L-26.715,-5.424 L-26.291,-5.431 L-25.863,-5.439 L-25.431,-5.446 L-24.995,-5.452 L-24.555,-5.459 L-24.113,-5.465 L-23.666,-5.47 L-23.216,-5.476 L-22.763,-5.481 L-22.306,-5.485 L-21.846,-5.489 L-21.383,-5.493 L-20.917,-5.497 L-20.448,-5.5 L-19.976,-5.503 L-19.5,-5.506 L-19.022,-5.509 L-18.542,-5.511 L-18.058,-5.513 L-17.572,-5.514 L-17.083,-5.516 L-16.592,-5.517 L-16.099,-5.518 L-15.603,-5.519 L-15.104,-5.519 L-14.604,-5.52 L-14.101,-5.52 L-13.597,-5.52 L-13.09,-5.52 L-12.582,-5.52 L-12.071,-5.52 L-11.559,-5.52 L-11.045,-5.52 L-10.53,-5.52 L-10.013,-5.52 L-9.495,-5.52 L-8.975,-5.52 L-8.454,-5.52 L-7.931,-5.52 L-7.408,-5.52 L-6.883,-5.52 L-6.358,-5.52 L-5.831,-5.52 L-5.304,-5.52 L-4.775,-5.52 L-4.247,-5.52 L-3.717,-5.52 L-3.187,-5.52 L-2.657,-5.52 L-2.126,-5.52 L-1.595,-5.52 L-1.063,-5.52 L-0.532,-5.52 L-0,-5.52 L0.532,-5.52 L1.063,-5.52 L1.595,-5.52 L2.126,-5.52 L2.657,-5.52 L3.187,-5.52 L3.717,-5.52 L4.247,-5.52 L4.775,-5.52 L5.304,-5.52 L5.831,-5.52 L6.358,-5.52 L6.883,-5.52 L7.408,-5.52 L7.931,-5.52 L8.454,-5.52 L8.975,-5.52 L9.495,-5.52 L10.013,-5.519 L10.53,-5.518 L11.045,-5.516 L11.559,-5.513 L12.071,-5.509 L12.582,-5.503 L13.09,-5.496 L13.597,-5.488 L14.101,-5.478 L14.604,-5.466 L15.104,-5.453 L15.603,-5.437 L16.099,-5.42 L16.592,-5.402 L17.083,-5.381 L17.572,-5.358 L18.058,-5.333 L18.542,-5.306 L19.022,-5.278 L19.5,-5.247 L19.976,-5.214 L20.448,-5.179 L20.917,-5.141 L21.383,-5.102 L21.846,-5.06 L22.306,-5.017 L22.763,-4.971 L23.216,-4.923 L23.666,-4.874 L24.113,-4.822 L24.555,-4.768 L24.995,-4.712 L25.431,-4.654 L25.863,-4.594 L26.291,-4.532 L26.715,-4.469 L27.136,-4.403 L27.552,-4.336 L27.965,-4.267 L28.373,-4.196 L28.777,-4.124 L29.177,-4.05 L29.573,-3.974 L29.965,-3.898 L30.352,-3.819 L30.735,-3.74 L31.113,-3.659 L31.486,-3.577 L31.855,-3.494 L32.22,-3.409 L32.58,-3.324 L32.934,-3.238 L33.285,-3.151 L33.63,-3.063 L33.97,-2.975 L34.306,-2.886 L34.636,-2.797 L34.961,-2.707 L35.282,-2.617 L35.597,-2.526 L35.907,-2.435 L36.211,-2.345 L36.511,-2.254 L36.805,-2.163 L37.093,-2.073 L37.377,-1.983 L37.654,-1.893 L37.927,-1.804 L38.193,-1.715 L38.455,-1.626 L38.71,-1.539 L38.96,-1.452 L39.204,-1.366 L39.443,-1.281 L39.676,-1.197 L39.902,-1.115 L40.124,-1.033 L40.339,-0.953 L40.548,-0.874 L40.752,-0.796 L40.949,-0.72 L41.141,-0.646 L41.326,-0.573 L41.506,-0.502 L41.679,-0.433 L41.846,-0.365 L42.008,-0.3 L42.163,-0.237 L42.312,-0.175 L42.455,-0.116 L42.591,-0.059 L42.591,0.059 L42.455,0.116 L42.312,0.175 L42.163,0.237 L42.008,0.3 L41.846,0.365 L41.679,0.433 L41.506,0.502 L41.326,0.573 L41.141,0.646 L40.949,0.72 L40.752,0.796 L40.548,0.874 L40.339,0.953 L40.124,1.033 L39.902,1.115 L39.676,1.197 L39.443,1.281 L39.204,1.366 L38.96,1.452 L38.71,1.539 L38.455,1.626 L38.193,1.715 L37.927,1.804 L37.654,1.893 L37.377,1.983 L37.093,2.073 L36.805,2.163 L36.511,2.254 L36.211,2.345 L35.907,2.435 L35.597,2.526 L35.282,2.617 L34.961,2.707 L34.636,2.797 L34.306,2.886 L33.97,2.975 L33.63,3.063 L33.285,3.151 L32.934,3.238 L32.58,3.324 L32.22,3.409 L31.855,3.494 L31.486,3.577 L31.113,3.659 L30.735,3.74 L30.352,3.819 L29.965,3.898 L29.573,3.974 L29.177,4.05 L28.777,4.124 L28.373,4.196 L27.965,4.267 L27.552,4.336 L27.136,4.403 L26.715,4.469 L26.291,4.532 L25.863,4.594 L25.431,4.654 L24.995,4.712 L24.555,4.768 L24.113,4.822 L23.666,4.874 L23.216,4.923 L22.763,4.971 L22.306,5.017 L21.846,5.06 L21.383,5.102 L20.917,5.141 L20.448,5.179 L19.976,5.214 L19.5,5.247 L19.022,5.278 L18.542,5.306 L18.058,5.333 L17.572,5.358 L17.083,5.381 L16.592,5.402 L16.099,5.42 L15.603,5.437 L15.104,5.453 L14.604,5.466 L14.101,5.478 L13.597,5.488 L13.09,5.496 L12.582,5.503 L12.071,5.509 L11.559,5.513 L11.045,5.516 L10.53,5.518 L10.013,5.519 L9.495,5.52 L8.975,5.52 L8.454,5.52 L7.931,5.52 L7.408,5.52 L6.883,5.52 L6.358,5.52 L5.831,5.52 L5.304,5.52 L4.775,5.52 L4.247,5.52 L3.717,5.52 L3.187,5.52 L2.657,5.52 L2.126,5.52 L1.595,5.52 L1.063,5.52 L0.532,5.52 L-0,5.52 L-0.532,5.52 L-1.063,5.52 L-1.595,5.52 L-2.126,5.52 L-2.657,5.52 L-3.187,5.52 L-3.717,5.52 L-4.247,5.52 L-4.775,5.52 L-5.304,5.52 L-5.831,5.52 L-6.358,5.52 L-6.883,5.52 L-7.408,5.52 L-7.931,5.52 L-8.454,5.52 L-8.975,5.52 L-9.495,5.52 L-10.013,5.52 L-10.53,5.52 L-11.045,5.52 L-11.559,5.52 L-12.071,5.52 L-12.582,5.52 L-13.09,5.52 L-13.597,5.52 L-14.101,5.52 L-14.604,5.52 L-15.104,5.519 L-15.603,5.519 L-16.099,5.518 L-16.592,5.517 L-17.083,5.516 L-17.572,5.514 L-18.058,5.513 L-18.542,5.511 L-19.022,5.509 L-19.5,5.506 L-19.976,5.503 L-20.448,5.5 L-20.917,5.497 L-21.383,5.493 L-21.846,5.489 L-22.306,5.485 L-22.763,5.481 L-23.216,5.476 L-23.666,5.47 L-24.113,5.465 L-24.555,5.459 L-24.995,5.452 L-25.431,5.446 L-25.863,5.439 L-26.291,5.431 L-26.715,5.424 L-27.136,5.416 L-27.552,5.407 L-27.965,5.398 L-28.373,5.389 L-28.777,5.38 L-29.177,5.37 L-29.573,5.36 L-29.965,5.349 L-30.352,5.338 L-30.735,5.327 L-31.113,5.316 L-31.486,5.304 L-31.855,5.291 L-32.22,5.279 L-32.58,5.266 L-32.934,5.253 L-33.285,5.239 L-33.63,5.225 L-33.97,5.211 L-34.306,5.196 L-34.636,5.181 L-34.961,5.166 L-35.282,5.15 L-35.597,5.134 L-35.907,5.118 L-36.211,5.102 L-36.511,5.085 L-36.805,5.068 L-37.093,5.05 L-37.377,5.033 L-37.654,5.015 L-37.927,4.997 L-38.193,4.978 L-38.455,4.959 L-38.71,4.94 L-38.96,4.921 L-39.204,4.901 L-39.443,4.882 L-39.676,4.861 L-39.902,4.841 L-40.124,4.821 L-40.339,4.8 L-40.548,4.779 L-40.752,4.758 L-40.949,4.736 L-41.141,4.715 L-41.326,4.693 L-41.506,4.671 L-41.679,4.649 L-41.846,4.626 L-42.008,4.604 L-42.163,4.581 L-42.312,4.558 L-42.455,4.535 L-42.591,4.512 L-42.721,4.489 L-42.846,4.465 L-42.963,4.442 L-43.075,4.418 L-43.18,4.394 L-43.279,4.37 L-43.372,4.346 L-43.458,4.322 L-43.538,4.298 L-43.612,4.273 L-43.679,4.249 L-43.74,4.225 L-43.795,4.2 L-43.843,4.175 L-43.884,4.151 L-43.92,4.126 L-43.949,4.101 L-43.971,4.077 L-43.987,4.052 L-43.997,4.027 L-44,4.003 Z"/></clipPath></defs><path d="M-28.2,-4.37 L-5.06,-4.37 A1,1 0 0 1 -4.06,-3.37 L-4.06,3.37 A1,1 0 0 1 -5.06,4.37 L-28.2,4.37 A0.5,0.5 0 0 1 -28.7,3.87 L-28.7,-3.87 A0.5,0.5 0 0 1 -28.2,-4.37 Z" fill="#a3abb2" stroke="#1c2126" stroke-width="0.12" stroke-linejoin="round"/><path d="M-28.2,-4.37 L-5.06,-4.37 A1,1 0 0 1 -4.06,-3.37 L-4.06,3.37 A1,1 0 0 1 -5.06,4.37 L-28.2,4.37 A0.5,0.5 0 0 1 -28.7,3.87 L-28.7,-3.87 A0.5,0.5 0 0 1 -28.2,-4.37 Z" fill="none" stroke="#bac0c5" stroke-width="0.108" transform="translate(-0.072,-0.072)" stroke-opacity="0.7"/><path d="M13.87,-2.58 L16.392,-2.58 A2.428,2.428 0 0 1 18.82,-0.152 L18.82,0.152 A2.428,2.428 0 0 1 16.392,2.58 L13.87,2.58 A1,1 0 0 1 12.87,1.58 L12.87,-1.58 A1,1 0 0 1 13.87,-2.58 Z" fill="#a3abb2" stroke="#1c2126" stroke-width="0.12" stroke-linejoin="round"/><path d="M13.87,-2.58 L16.392,-2.58 A2.428,2.428 0 0 1 18.82,-0.152 L18.82,0.152 A2.428,2.428 0 0 1 16.392,2.58 L13.87,2.58 A1,1 0 0 1 12.87,1.58 L12.87,-1.58 A1,1 0 0 1 13.87,-2.58 Z" fill="none" stroke="#bac0c5" stroke-width="0.108" transform="translate(-0.072,-0.072)" stroke-opacity="0.7"/><path d="M15.07,-2.124 L16.649,-2.124 A1.821,1.821 0 0 1 18.47,-0.303 L18.47,0.303 A1.821,1.821 0 0 1 16.649,2.124 L15.07,2.124 A0.8,0.8 0 0 1 14.27,1.324 L14.27,-1.324 A0.8,0.8 0 0 1 15.07,-2.124 Z" fill="#b6bdc3" stroke="#1c2126" stroke-width="0.12" stroke-linejoin="round"/><path d="M15.07,-2.124 L16.649,-2.124 A1.821,1.821 0 0 1 18.47,-0.303 L18.47,0.303 A1.821,1.821 0 0 1 16.649,2.124 L15.07,2.124 A0.8,0.8 0 0 1 14.27,1.324 L14.27,-1.324 A0.8,0.8 0 0 1 15.07,-2.124 Z" fill="none" stroke="#c8ced2" stroke-width="0.108" transform="translate(-0.072,-0.072)" stroke-opacity="0.7"/><ellipse cx="-0.12" cy="3.67" rx="2" ry="0.6" fill="#c9ced2" stroke="#1c2126" stroke-width="0.12" stroke-linejoin="round"/><ellipse cx="-0.12" cy="3.67" rx="1.5" ry="0.25" fill="#a5a9ac"/><ellipse cx="-0.12" cy="-3.67" rx="2" ry="0.6" fill="#c9ced2" stroke="#1c2126" stroke-width="0.12" stroke-linejoin="round"/><ellipse cx="-0.12" cy="-3.67" rx="1.5" ry="0.25" fill="#a5a9ac"/><path d="M3.33,-1.1 L4.43,-1.1 A1.1,1.1 0 0 1 5.53,0 L5.53,0 A1.1,1.1 0 0 1 4.43,1.1 L3.33,1.1 A1.1,1.1 0 0 1 2.23,0 L2.23,0 A1.1,1.1 0 0 1 3.33,-1.1 Z" fill="#8a939b" stroke="#1c2126" stroke-width="0.12" stroke-linejoin="round"/><path d="M3.33,-0.5 L4.43,-0.5 A0.5,0.5 0 0 1 4.93,0 L4.93,0 A0.5,0.5 0 0 1 4.43,0.5 L3.33,0.5 A0.5,0.5 0 0 1 2.83,0 L2.83,0 A0.5,0.5 0 0 1 3.33,-0.5 Z" fill="#2b2f33"/><ellipse cx="3.88" cy="0" rx="0.8" ry="0.1" fill="#0b0d0f"/><path d="M3.33,-1.1 L4.43,-1.1 A1.1,1.1 0 0 1 5.53,0 L5.53,0 A1.1,1.1 0 0 1 4.43,1.1 L3.33,1.1 A1.1,1.1 0 0 1 2.23,0 L2.23,0 A1.1,1.1 0 0 1 3.33,-1.1 Z" fill="none" stroke="#adb3b9" stroke-width="0.12" transform="translate(-0.072,-0.072)" stroke-opacity="0.6"/><line x1="10.82" y1="-1.821" x2="10.82" y2="1.821" stroke="#30363b" stroke-width="0.35" stroke-linecap="round"/><circle cx="10.82" cy="0" r="0.7" fill="#30363b" stroke="#1c2126" stroke-width="0.072" stroke-linejoin="round"/><circle cx="-31.2" cy="3.37" r="1.4" fill="#75797d" stroke="#1c2126" stroke-width="0.12" stroke-linejoin="round"/><line x1="-31.2" y1="3.37" x2="-36.857" y2="9.027" stroke="#3a4045" stroke-width="0.56" stroke-linecap="round"/><circle cx="-36.857" cy="9.027" r="0.35" fill="#3a4045"/><circle cx="-31.2" cy="3.37" r="0.77" fill="#b0b3b5" stroke="#1c2126" stroke-width="0.072" stroke-linejoin="round"/><circle cx="-31.2" cy="-3.37" r="1.4" fill="#75797d" stroke="#1c2126" stroke-width="0.12" stroke-linejoin="round"/><line x1="-31.2" y1="-3.37" x2="-36.857" y2="-9.027" stroke="#3a4045" stroke-width="0.56" stroke-linecap="round"/><circle cx="-36.857" cy="-9.027" r="0.35" fill="#3a4045"/><circle cx="-31.2" cy="-3.37" r="0.77" fill="#b0b3b5" stroke="#1c2126" stroke-width="0.072" stroke-linejoin="round"/></svg>